<?xml version="1.0" encoding="UTF-8"?>
<svg version="1.1" xmlns="http://www.w3.org/2000/svg" width="676" height="369">
<path d="M0 0 C2.6328125 2.26953125 2.6328125 2.26953125 3.6328125 5.26953125 C4.22578125 5.56472656 4.81875 5.85992187 5.4296875 6.1640625 C15.65328675 11.29398907 22.6437604 27.34661018 26.2421875 37.6796875 C33.07270914 59.36647855 30.74798456 81.03079113 20.5078125 101.14453125 C16.31212214 108.95140643 10.96620111 115.10226431 4.6328125 121.26953125 C4.11074219 121.80320313 3.58867187 122.336875 3.05078125 122.88671875 C-10.75611569 136.35129593 -30.57853458 143.62864706 -49.7421875 143.89453125 C-67.61089392 143.5927075 -87.26696323 138.48173758 -100.7109375 126.11328125 C-101.2575 125.50484375 -101.8040625 124.89640625 -102.3671875 124.26953125 C-103.1715625 123.46515625 -103.9759375 122.66078125 -104.8046875 121.83203125 C-105.6503125 120.98640625 -106.4959375 120.14078125 -107.3671875 119.26953125 C-108.57375 118.12484375 -108.57375 118.12484375 -109.8046875 116.95703125 C-124.18480519 101.87544441 -129.53058246 84.104973 -129.6171875 63.64453125 C-129.6378125 62.44957031 -129.6584375 61.25460938 -129.6796875 60.0234375 C-129.72845976 48.76923894 -128.05057252 38.22320303 -122.7421875 28.20703125 C-122.39518799 27.53784668 -122.04818848 26.86866211 -121.69067383 26.17919922 C-111.06295493 6.28160265 -94.82042236 -6.80209044 -73.578125 -13.765625 C-72.51851563 -14.08402344 -71.45890625 -14.40242188 -70.3671875 -14.73046875 C-69.57570313 -14.97667969 -68.78421875 -15.22289063 -67.96875 -15.4765625 C-44.38651734 -21.47555151 -19.02818133 -14.19602475 0 0 Z M-83.5 32.61328125 C-85.22422967 34.77758627 -86.81843927 36.97756189 -88.3671875 39.26953125 C-88.9446875 40.05328125 -89.5221875 40.83703125 -90.1171875 41.64453125 C-95.99832903 53.99492846 -96.26446337 68.4063975 -91.76171875 81.23046875 C-85.68440593 94.47458465 -76.30438509 101.46292356 -63.3671875 107.26953125 C-54.22056541 110.31840528 -41.37937833 109.36470568 -32.66015625 105.5390625 C-26.78471435 102.28604952 -21.92847274 98.19091796 -17.3671875 93.26953125 C-16.87347656 92.78097656 -16.37976563 92.29242188 -15.87109375 91.7890625 C-11.24729816 86.93465366 -9.26743691 81.63293057 -7.3671875 75.26953125 C-7.17253906 74.65722656 -6.97789062 74.04492188 -6.77734375 73.4140625 C-4.25348848 60.21790493 -6.97442732 47.37876054 -14.3671875 36.26953125 C-21.60024338 26.41449262 -31.26662566 20.28629156 -43.3671875 18.26953125 C-59.06980987 17.0601121 -72.66229844 20.7037191 -83.5 32.61328125 Z " fill="#087EDE" transform="translate(378.3671875,119.73046875)"/>
<path d="M0 0 C0.97582031 0.77085938 1.95164062 1.54171875 2.95703125 2.3359375 C6.31387199 5.12991295 8.9188236 8.35300707 11.5625 11.8125 C12.28626831 12.75258911 12.28626831 12.75258911 13.0246582 13.71166992 C16.30028835 18.00400934 19.46879405 22.21794319 22 27 C22.92039062 28.72669922 22.92039062 28.72669922 23.859375 30.48828125 C38.32555655 58.79781397 40.59927617 88.65930175 30.9597168 118.79931641 C28.1582084 127.10396734 24.3938073 134.43501004 20 142 C18.99219424 143.99607804 17.9910628 145.99555631 17 148 C17.57967529 148.57967529 18.15935059 149.15935059 18.7565918 149.7565918 C24.83772786 155.83772786 30.91886393 161.91886393 37 168 C37.87374268 168.86214111 38.74748535 169.72428223 39.64770508 170.61254883 C42 173 42 173 44.5 176.0625 C46.84038392 178.81245111 49.15908348 180.7982897 52 183 C55.63231501 186.45069926 58.80337152 190.14765286 62 194 C62.721875 194.66 63.44375 195.32 64.1875 196 C67.31958942 199.45609867 67.9054057 202.94054384 68.3125 207.5 C67.8284764 212.92106431 66.03708508 216.31432104 61.9375 219.8125 C56.9841143 223.50119148 53.07998225 223.67451267 47 223 C42.53545738 220.72561036 39.47513106 217.56200934 36 214 C35.01 213.195625 34.02 212.39125 33 211.5625 C29.92096119 208.93248768 27.54921599 206.1374966 25 203 C22.64075967 200.52279765 20.34459721 198.26298208 17.625 196.1875 C15.33767302 194.28139419 13.60196685 192.44492123 11.6875 190.1875 C8.64825987 186.61738823 5.36607292 183.62061439 1.78515625 180.60546875 C0 179 0 179 -2.25 176.125 C-3.79460382 173.94122214 -3.79460382 173.94122214 -5.7890625 173.15625 C-9.08491675 172.92332744 -10.533236 174.41763794 -13.125 176.375 C-17.38486576 179.54777836 -19.58639723 181.15570744 -24.9375 181.25 C-26.25041016 181.28867187 -26.25041016 181.28867187 -27.58984375 181.328125 C-30 181 -30 181 -31.76171875 179.6953125 C-33.8014828 176.90270178 -33.88280183 174.39874705 -34 171 C-32.34517533 166.15372776 -28.55080326 164.16201214 -24.41015625 161.54296875 C-20.78825165 159.22424538 -17.40910814 156.61664002 -14 154 C-12.63875 153.01 -12.63875 153.01 -11.25 152 C-8.58347353 149.62975425 -6.95832356 146.96907121 -5 144 C-3.67151309 142.99357052 -2.33849671 141.99307821 -1 141 C0.04100948 139.35863562 1.03267577 137.68584151 2 136 C2.62777344 134.93265625 3.25554687 133.8653125 3.90234375 132.765625 C5.97707336 129.19999914 7.99759397 125.60676786 10 122 C10.41894531 121.2471875 10.83789062 120.494375 11.26953125 119.71875 C21.43331304 99.31020011 20.63598327 72.53987145 13.82568359 51.31152344 C7.17995563 32.70662918 -7.55143766 14.78395616 -24 4 C-24.83402344 3.43796875 -25.66804687 2.8759375 -26.52734375 2.296875 C-46.66842593 -10.41217548 -72.62938892 -13.98555434 -95.875 -9.4375 C-98.62980347 -8.73278283 -101.30183181 -7.89687714 -104 -7 C-105.08796875 -6.67257813 -106.1759375 -6.34515625 -107.296875 -6.0078125 C-120.70619484 -1.68703166 -132.17029221 5.92454951 -142 16 C-142.804375 16.78375 -143.60875 17.5675 -144.4375 18.375 C-146.36108102 20.34549763 -148.23488226 22.31778204 -150.0625 24.375 C-150.52785156 24.89835937 -150.99320313 25.42171875 -151.47265625 25.9609375 C-155.33493021 31.1172214 -158.15386342 37.07929148 -161.0625 42.8125 C-161.40087891 43.46025391 -161.73925781 44.10800781 -162.08789062 44.77539062 C-167.3819388 55.23036777 -168.72354182 65.59479347 -169.72851562 77.16210938 C-170.75668737 87.23089187 -170.75668737 87.23089187 -175 91 C-177.88861709 92.44430855 -179.79647701 92.37688506 -183 92 C-186.7087373 89.22253154 -187.87914721 87.71089875 -188.6640625 83.09375 C-188.68577976 81.56259865 -188.67050476 80.03062909 -188.625 78.5 C-188.60880615 77.66976318 -188.5926123 76.83952637 -188.57592773 75.98413086 C-187.3984601 46.1911378 -172.74153099 19.95432614 -151.58203125 -0.31640625 C-149.42959444 -2.26878869 -147.2428122 -4.15248865 -145 -6 C-144.03513672 -6.79664063 -144.03513672 -6.79664063 -143.05078125 -7.609375 C-128.61403895 -18.97135474 -111.02879208 -25.48201228 -93 -28 C-91.81083984 -28.19529297 -91.81083984 -28.19529297 -90.59765625 -28.39453125 C-56.57122719 -33.2927696 -25.50897714 -22.10504611 0 0 Z " fill="#097DDE" transform="translate(404,100)"/>
<path d="M0 0 C-0.33 0.66 -0.66 1.32 -1 2 C-0.01 2.99 -0.01 2.99 1 4 C-2.63 3.34 -6.26 2.68 -10 2 C-10 1.34 -10 0.68 -10 0 C-12.64 -0.33 -15.28 -0.66 -18 -1 C-18 -1.99 -18 -2.98 -18 -4 C-21.3 -4 -24.6 -4 -28 -4 C-28 -4.66 -28 -5.32 -28 -6 C-42.9426982 -6.53344797 -57.51825165 -6.1530094 -72 -2 C-72.33 -1.67 -72.66 -1.34 -73 -1 C-74.59391863 -0.60224617 -76.20088224 -0.25604817 -77.8125 0.0625 C-78.68519531 0.23910156 -79.55789063 0.41570312 -80.45703125 0.59765625 C-83 1 -83 1 -87 1 C-87 1.66 -87 2.32 -87 3 C-87.56847656 3.23074219 -88.13695312 3.46148437 -88.72265625 3.69921875 C-92.70527412 5.38135952 -96.29673891 7.06515604 -99.75 9.6875 C-102.81498387 11.86835391 -104.39881114 12.4704134 -108 13 C-108.33 13.66 -108.66 14.32 -109 15 C-110.41912309 15.60737317 -111.86090128 16.16245366 -113.3125 16.6875 C-117.39020804 18.42406336 -119.11007658 19.99877044 -121.03515625 24.1328125 C-122.47146448 26.91238876 -124.52397796 29.03509524 -126.6328125 31.32421875 C-128.10325256 32.97512945 -128.10325256 32.97512945 -128.953125 35.16015625 C-129.29859375 35.76730469 -129.6440625 36.37445313 -130 37 C-133.625 37.75 -133.625 37.75 -137 38 C-125.0460271 16.86507613 -101.53104475 2.42404149 -79 -5 C-73.73150416 -6.40878329 -68.39532685 -7.24646273 -63 -8 C-61.81083984 -8.19529297 -61.81083984 -8.19529297 -60.59765625 -8.39453125 C-40.12592168 -11.34151799 -18.84041102 -8.2343522 0 0 Z " fill="#257CC3" transform="translate(374,80)"/>
<path d="M0 0 C5.66288197 0.44845804 9.19734478 2.68646267 13.75 5.8125 C14.42160156 6.25142578 15.09320313 6.69035156 15.78515625 7.14257812 C19.27337708 9.4948553 21.27114764 11.09313265 23 15 C24.32544541 15.68221455 25.65988972 16.34706306 27 17 C41.91694946 31.88891008 49.3653529 52.21084041 49.625 73.0625 C49.40680914 89.4396489 44.50257818 105.51643998 35 119 C32.72265625 120.97265625 32.72265625 120.97265625 31 122 C31.51030762 117.53480834 33.18234923 115.41533427 36 112 C37.57841187 108.92625058 38.13841 106.20776877 38.5 102.8125 C39 99 39 99 41 97 C41.64276846 94.60543906 41.64276846 94.60543906 42.0625 91.9375 C42.90277778 87.09722222 42.90277778 87.09722222 44 86 C44.24435961 81.72889013 44.22861907 77.45165233 44.24023438 73.17431641 C44.24983664 71.03637218 44.28079347 68.89943274 44.3125 66.76171875 C44.38186947 57.81986922 43.40406846 50.71909736 39.3125 42.6875 C38 40 38 40 38 36 C37.34 36 36.68 36 36 36 C35.731875 35.401875 35.46375 34.80375 35.1875 34.1875 C34.14160642 31.9953732 34.14160642 31.9953732 32.5625 30.625 C31 29 31 29 29.6875 26.125 C28.00849542 23.01573226 26.32838971 21.42269831 23.55078125 19.29296875 C21.90938637 17.9244506 20.64742212 16.4781279 19.3125 14.8125 C15.84361226 10.59358248 13.27479009 9.70330535 8 9 C8 8.34 8 7.68 8 7 C6.35 6.67 4.7 6.34 3 6 C3.66 5.67 4.32 5.34 5 5 C4.67 4.34 4.34 3.68 4 3 C1.97536745 2.34786708 1.97536745 2.34786708 0 2 C0 1.34 0 0.68 0 0 Z " fill="#4085B8" transform="translate(359,110)"/>
<path d="M0 0 C1.19044922 0.02255859 2.38089844 0.04511719 3.60742188 0.06835938 C6.5104822 0.12665376 9.41078237 0.20842118 12.3125 0.3125 C12.3125 1.3025 12.3125 2.2925 12.3125 3.3125 C13.385 3.23 14.4575 3.1475 15.5625 3.0625 C20.09199318 3.36446621 20.26855046 4.2237865 23.3125 7.3125 C26.09731359 8.84002475 26.09731359 8.84002475 29.0625 10.0625 C30.04734375 10.49046875 31.0321875 10.9184375 32.046875 11.359375 C33.16835938 11.83117187 33.16835938 11.83117187 34.3125 12.3125 C34.3125 13.3025 34.3125 14.2925 34.3125 15.3125 C34.9725 15.3125 35.6325 15.3125 36.3125 15.3125 C36.81910156 16.23482422 36.81910156 16.23482422 37.3359375 17.17578125 C37.78195312 17.98402344 38.22796875 18.79226562 38.6875 19.625 C39.34878906 20.82576172 39.34878906 20.82576172 40.0234375 22.05078125 C41.04763335 23.84777943 42.16517138 25.59150708 43.3125 27.3125 C43.93844664 29.8421284 44.47658729 32.31565168 44.9375 34.875 C45.06793701 35.5980835 45.19837402 36.32116699 45.33276367 37.06616211 C47.2559441 48.28785093 48.03823721 63.63849442 41.3125 73.3125 C39.3325 72.3225 39.3325 72.3225 37.3125 71.3125 C37.72822266 70.19101563 37.72822266 70.19101563 38.15234375 69.046875 C38.69568359 67.56960937 38.69568359 67.56960937 39.25 66.0625 C39.60964844 65.08796875 39.96929687 64.1134375 40.33984375 63.109375 C44.3207976 51.66213421 43.29992583 38.85294397 38.2109375 27.953125 C32.22917978 16.45271338 23.69898515 9.23488696 11.3125 5.3125 C-0.46040374 2.50754642 -12.60224135 4.00767903 -23.27734375 9.69140625 C-25.12425914 10.8307161 -26.91463768 12.06106778 -28.6875 13.3125 C-29.0175 11.9925 -29.3475 10.6725 -29.6875 9.3125 C-28.0375 9.3125 -26.3875 9.3125 -24.6875 9.3125 C-24.6875 7.9925 -24.6875 6.6725 -24.6875 5.3125 C-16.31538102 0.60351488 -9.51123381 -0.34712532 0 0 Z " fill="#1F7AC1" transform="translate(328.6875,134.6875)"/>
<path d="M0 0 C2.66701495 0.47274847 5.30183576 0.72087956 8 1 C8.99 3.475 8.99 3.475 10 6 C8.14375 5.5359375 8.14375 5.5359375 6.25 5.0625 C-10.57945757 1.72048006 -29.68479689 1.57679003 -46 7 C-47.63195312 7.49113281 -47.63195312 7.49113281 -49.296875 7.9921875 C-62.70619484 12.31296834 -74.17029221 19.92454951 -84 30 C-84.804375 30.78375 -85.60875 31.5675 -86.4375 32.375 C-90.85791486 36.90322986 -94.95327501 41.41433751 -98 47 C-98 41.43771379 -95.26241985 37.38387667 -92 33 C-91.34 33 -90.68 33 -90 33 C-89.731875 32.030625 -89.46375 31.06125 -89.1875 30.0625 C-88.5996875 28.5465625 -88.5996875 28.5465625 -88 27 C-87.01 26.67 -86.02 26.34 -85 26 C-83.79117904 23.99983534 -83.79117904 23.99983534 -83 22 C-81.68 22 -80.36 22 -79 22 C-79 21.34 -79 20.68 -79 20 C-77.68 19.67 -76.36 19.34 -75 19 C-75 18.01 -75 17.02 -75 16 C-71.04 14.515 -71.04 14.515 -67 13 C-67 12.34 -67 11.68 -67 11 C-65.35 11 -63.7 11 -62 11 C-62 10.34 -62 9.68 -62 9 C-60.68 9 -59.36 9 -58 9 C-57.67 8.01 -57.34 7.02 -57 6 C-51.0948665 2.53394338 -45.72220689 2.67179098 -39 3 C-39 2.34 -39 1.68 -39 1 C-32.88622814 -1.82338122 -26.69237387 -1.54081314 -20.0625 -1.75 C-18.79986328 -1.80542969 -17.53722656 -1.86085938 -16.23632812 -1.91796875 C-15.01494141 -1.96050781 -13.79355469 -2.00304687 -12.53515625 -2.046875 C-11.425354 -2.08651367 -10.31555176 -2.12615234 -9.17211914 -2.16699219 C-5.78204801 -1.98852619 -3.16669856 -1.18331106 0 0 Z " fill="#3986BD" transform="translate(346,86)"/>
<path d="M0 0 C2 1.25 2 1.25 4 3 C4 4.32 4 5.64 4 7 C4.66 7 5.32 7 6 7 C6.81604999 8.9151579 7.62770632 10.83218834 8.4375 12.75 C8.88996094 13.81734375 9.34242188 14.8846875 9.80859375 15.984375 C10.73979553 18.3413841 11.4784072 20.52992835 12 23 C12.66 23 13.32 23 14 23 C20.9877666 42.37940603 20.8018723 65.15226116 16 85 C15.34 85 14.68 85 14 85 C13.67 88.63 13.34 92.26 13 96 C11.515 96.495 11.515 96.495 10 97 C9.9175 97.7425 9.835 98.485 9.75 99.25 C9 102 9 102 7.125 103.8125 C4.14433458 106.88083205 3.34742963 109.9577111 2 114 C1.34 114 0.68 114 0 114 C-0.06058594 114.76699219 -0.12117188 115.53398437 -0.18359375 116.32421875 C-1 119 -1 119 -3.28515625 120.58203125 C-4.65994141 121.19111328 -4.65994141 121.19111328 -6.0625 121.8125 C-6.98160156 122.23144531 -7.90070313 122.65039062 -8.84765625 123.08203125 C-9.91306641 123.53642578 -9.91306641 123.53642578 -11 124 C-9.26224768 120.21218043 -6.94664464 117.94664464 -4 115 C-2.96188841 113.35680126 -1.96791295 111.68550358 -1 110 C-0.37222656 108.93265625 0.25554687 107.8653125 0.90234375 106.765625 C2.97707336 103.19999914 4.99759397 99.60676786 7 96 C7.41894531 95.2471875 7.83789062 94.494375 8.26953125 93.71875 C18.42322206 73.33046247 17.64224502 46.55790777 10.85205078 25.34228516 C7.78151625 16.90139453 3.01402598 9.40378446 -2 2 C-1.34 2 -0.68 2 0 2 C0 1.34 0 0.68 0 0 Z " fill="#126DB3" transform="translate(407,126)"/>
<path d="M0 0 C0.66 0.33 1.32 0.66 2 1 C1.875 2.75 1.875 2.75 1 5 C-0.96498322 6.38442 -2.97048465 7.71203834 -5 9 C-5.9075 9.9075 -6.815 10.815 -7.75 11.75 C-8.4925 12.4925 -9.235 13.235 -10 14 C-10.66 14 -11.32 14 -12 14 C-11.896875 14.680625 -11.79375 15.36125 -11.6875 16.0625 C-12.0780875 19.73402255 -13.47688015 21.35499246 -15.6875 24.21875 C-17.47802334 26.64874596 -18.73413472 29.26839598 -20 32 C-20.66 32 -21.32 32 -22 32 C-21.95875 32.763125 -21.9175 33.52625 -21.875 34.3125 C-22 37 -22 37 -24 40 C-24.66 40 -25.32 40 -26 40 C-27.18800725 47.48139644 -27.28238321 54.88506842 -27.3125 62.4375 C-27.31644775 63.15188232 -27.32039551 63.86626465 -27.32446289 64.60229492 C-27.35189039 75.19765784 -26.6984479 84.9613557 -23 95 C-22.34 95 -21.68 95 -21 95 C-18.76730769 101.45 -18.76730769 101.45 -19.9453125 104.234375 C-20.29335938 104.81703125 -20.64140625 105.3996875 -21 106 C-22.13011652 103.7941576 -23.25415788 101.58554973 -24.375 99.375 C-24.69210938 98.75753906 -25.00921875 98.14007813 -25.3359375 97.50390625 C-30.6670741 86.95269839 -31.20058229 77.0499331 -31.25 65.375 C-31.270625 64.18003906 -31.29125 62.98507813 -31.3125 61.75390625 C-31.36127226 50.49970769 -29.68338502 39.95367178 -24.375 29.9375 C-24.02800049 29.26831543 -23.68100098 28.59913086 -23.32348633 27.90966797 C-17.34982773 16.72557006 -9.60695676 8.11653169 0 0 Z " fill="#1F77BA" transform="translate(280,118)"/>
<path d="M0 0 C3.81723155 3.37678176 6.02328562 7.11731667 8.375 11.5625 C8.96099976 12.66839478 8.96099976 12.66839478 9.55883789 13.79663086 C21.83010874 37.86225086 26.11479308 66.75778355 18.375 92.875 C17.92731836 94.25350484 17.4734561 95.63013367 17 97 C16.67 97 16.34 97 16 97 C15.97294692 94.58325776 15.95313562 92.1668206 15.9375 89.75 C15.92493164 88.72712891 15.92493164 88.72712891 15.91210938 87.68359375 C15.88666347 82.44173767 15.88666347 82.44173767 16.4934082 80.0769043 C19.91936627 66.03130177 16.76781492 49.00328844 14.27539062 35.00097656 C14 33 14 33 14 29 C13.01 29 12.02 29 11 29 C10.814375 27.2984375 10.814375 27.2984375 10.625 25.5625 C10.41875 24.386875 10.2125 23.21125 10 22 C9.34 21.67 8.68 21.34 8 21 C8 20.01 8 19.02 8 18 C7.34 18 6.68 18 6 18 C6 16.68 6 15.36 6 14 C5.34 14 4.68 14 4 14 C3.34 11.36 2.68 8.72 2 6 C1.34 6 0.68 6 0 6 C0 4.02 0 2.04 0 0 Z " fill="#1973B9" transform="translate(419,118)"/>
<path d="M0 0 C1.32 0.33 2.64 0.66 4 1 C3.401875 1.763125 2.80375 2.52625 2.1875 3.3125 C-4.27391289 13.22306569 -4.42798708 26.24807016 -2.34375 37.5625 C0.27662949 47.14043883 4.89266461 55.10375608 13 61 C13 61.66 13 62.32 13 63 C13.825 63.2475 14.65 63.495 15.5 63.75 C18.90239032 64.9651394 21.97426234 66.42836197 25.16796875 68.09765625 C29.15922683 70.06349978 32.79340424 70.28031036 37.1875 70.5625 C39.09595703 70.68818359 39.09595703 70.68818359 41.04296875 70.81640625 C42.01878906 70.87699219 42.99460937 70.93757813 44 71 C44 71.66 44 72.32 44 73 C34.59047635 73.25469387 27.67273008 72.67934003 19 69 C19 68.34 19 67.68 19 67 C15.535 66.505 15.535 66.505 12 66 C11.773125 65.195625 11.54625 64.39125 11.3125 63.5625 C10.879375 62.716875 10.44625 61.87125 10 61 C9.175 60.835 8.35 60.67 7.5 60.5 C6.675 60.335 5.85 60.17 5 60 C3.875 57.5625 3.875 57.5625 3 55 C2.01 54.34 1.02 53.68 0 53 C0 51.68 0 50.36 0 49 C-0.99 48.67 -1.98 48.34 -3 48 C-8.76488479 39.35267281 -9.20901205 29.18672682 -8 19 C-6.47598017 13.67475695 -4.23101434 8.99787573 -1.33203125 4.29296875 C0.16743773 2.15373713 0.16743773 2.15373713 0 0 Z " fill="#297EC0" transform="translate(288,157)"/>
<path d="M0 0 C1.822425 5.467275 -1.76995753 10.92140456 -4 16 C-5.45395879 18.86803343 -6.97422434 21.67384634 -8.5703125 24.46484375 C-10.14862308 27.26354201 -11.57148547 30.12245056 -13 33 C-12.13048706 33.86951294 -12.13048706 33.86951294 -11.2434082 34.7565918 C-5.16227214 40.83772786 0.91886393 46.91886393 7 53 C7.87374268 53.86214111 8.74748535 54.72428223 9.64770508 55.61254883 C12 58 12 58 14.5 61.0625 C16.88705106 64.05553872 16.88705106 64.05553872 19.8125 66.25 C20.534375 66.8275 21.25625 67.405 22 68 C22 68.66 22 69.32 22 70 C21.01 70 20.02 70 19 70 C19 69.01 19 68.02 19 67 C18.41089844 66.90203125 17.82179688 66.8040625 17.21484375 66.703125 C14.56064397 65.86052189 13.46072734 64.76659256 11.5625 62.75 C10.964375 62.12222656 10.36625 61.49445313 9.75 60.84765625 C9.1725 60.23792969 8.595 59.62820313 8 59 C7.02330211 58.05992828 6.04447897 57.12205385 5.0625 56.1875 C3 54 3 54 3 52 C2.01 52 1.02 52 0 52 C0 51.34 0 50.68 0 50 C-0.66 50 -1.32 50 -2 50 C-2 49.34 -2 48.68 -2 48 C-2.66 48 -3.32 48 -4 48 C-4 47.34 -4 46.68 -4 46 C-5.65 45.34 -7.3 44.68 -9 44 C-9 43.01 -9 42.02 -9 41 C-9.99 40.67 -10.98 40.34 -12 40 C-12.495 38.515 -12.495 38.515 -13 37 C-13.53625 36.54625 -14.0725 36.0925 -14.625 35.625 C-16 34 -16 34 -15.8125 31.5625 C-15.06651171 29.20976771 -14.19665408 27.15397735 -13 25 C-12.34 25 -11.68 25 -11 25 C-11 23.68 -11 22.36 -11 21 C-10.34 21 -9.68 21 -9 21 C-9 20.34 -9 19.68 -9 19 C-8.34 19 -7.68 19 -7 19 C-6.67 16.69 -6.34 14.38 -6 12 C-5.34 12 -4.68 12 -4 12 C-3.8453125 10.4221875 -3.8453125 10.4221875 -3.6875 8.8125 C-3.02266585 5.12569246 -2.11433704 3.03361401 0 0 Z " fill="#3282BC" transform="translate(434,215)"/>
<path d="M0 0 C3.81004114 0.23812757 5.87129931 1.54900984 8.75 3.875 C12.91464478 7.15956891 16.94069687 8.59308513 22 10 C24 10.66666667 26 11.33333333 28 12 C28 12.66 28 13.32 28 14 C31.3 14.33 34.6 14.66 38 15 C38 15.66 38 16.32 38 17 C50.12860356 17.4360394 61.13365036 17.40850561 72.78515625 13.77734375 C76.03154951 12.99237138 77.83931098 13.05000084 81 14 C68.29484292 22.47010472 49.4089039 21.46538974 35.09814453 18.71069336 C22.69456668 15.98026729 7.50429888 10.91534383 0 0 Z " fill="#3C86BD" transform="translate(276,243)"/>
<path d="M0 0 C0.33 0 0.66 0 1 0 C1.65981154 20.59119567 -0.01907796 37.55067296 -12 55 C-14.28125 56.98828125 -14.28125 56.98828125 -16 58 C-15.48969238 53.53480834 -13.81765077 51.41533427 -11 48 C-9.42158813 44.92625058 -8.86159 42.20776877 -8.5 38.8125 C-8 35 -8 35 -6 33 C-5.35723154 30.60543906 -5.35723154 30.60543906 -4.9375 27.9375 C-4.09722222 23.09722222 -4.09722222 23.09722222 -3 22 C-2.86750736 20.53624517 -2.79678005 19.06676971 -2.75390625 17.59765625 C-2.72103516 16.70755859 -2.68816406 15.81746094 -2.65429688 14.90039062 C-2.59322914 13.01248816 -2.53592113 11.12446023 -2.48242188 9.23632812 C-2.44826172 8.34494141 -2.41410156 7.45355469 -2.37890625 6.53515625 C-2.3538501 5.714104 -2.32879395 4.89305176 -2.30297852 4.04711914 C-2 2 -2 2 0 0 Z " fill="#1771B7" transform="translate(406,174)"/>
<path d="M0 0 C-3.83840048 1.27946683 -6.66428364 0.37733455 -10.5 -0.4375 C-17.05843333 -1.71684683 -23.38074686 -2.28237796 -30.0625 -2.25 C-31.22072266 -2.24504517 -31.22072266 -2.24504517 -32.40234375 -2.23999023 C-41.00607979 -2.09950968 -48.80915259 -0.73028247 -57 2 C-58.39439664 2.06665376 -59.79169875 2.08538199 -61.1875 2.0625 C-63.0746875 2.0315625 -63.0746875 2.0315625 -65 2 C-47.33375955 -9.77749364 -18.56843162 -9.28421581 0 0 Z " fill="#307FB7" transform="translate(359,109)"/>
<path d="M0 0 C6.61335246 4.53857522 12.82191717 9.05977409 15.6875 16.875 C16.55256414 22.75743617 16.29093687 26.95389679 13 32 C9.02316963 35.93441085 5.8752584 38.15056074 0.25 38.3125 C-4.80616387 38.27591415 -7.21352311 37.30103114 -11 34 C-11.33 33.34 -11.66 32.68 -12 32 C-9.61435923 32.57584432 -7.33317216 33.22227595 -5 34 C-2.77181559 34.06937062 -0.54165476 34.08457084 1.6875 34.0625 C2.86699219 34.05347656 4.04648437 34.04445313 5.26171875 34.03515625 C6.16535156 34.02355469 7.06898438 34.01195312 8 34 C8 33.34 8 32.68 8 32 C8.97839844 31.36191406 8.97839844 31.36191406 9.9765625 30.7109375 C12.24710965 29.15840244 12.24710965 29.15840244 12.4609375 26.4765625 C12.43257813 25.53554688 12.40421875 24.59453125 12.375 23.625 C12.36210937 22.68914062 12.34921875 21.75328125 12.3359375 20.7890625 C11.98317073 17.86027793 11.30397623 15.64055186 10 13 C8.11683841 11.89163577 8.11683841 11.89163577 6 11 C3.75 9.125 3.75 9.125 2 7 C2 5.68 2 4.36 2 3 C1.34 3 0.68 3 0 3 C0 2.01 0 1.02 0 0 Z " fill="#428BC2" transform="translate(456,285)"/>
<path d="M0 0 C2 1.25 2 1.25 4 3 C4 4.32 4 5.64 4 7 C4.66 7 5.32 7 6 7 C6.81604999 8.9151579 7.62770632 10.83218834 8.4375 12.75 C8.88996094 13.81734375 9.34242188 14.8846875 9.80859375 15.984375 C10.73979553 18.3413841 11.4784072 20.52992835 12 23 C12.66 23 13.32 23 14 23 C16.38968704 29.79914595 17.42467919 35.75567837 17.29296875 42.9453125 C17.28872391 43.84120087 17.28447906 44.73708923 17.28010559 45.66012573 C17.26350154 48.48207479 17.22588593 51.30327199 17.1875 54.125 C17.17242946 56.05467708 17.15874524 57.98436552 17.14648438 59.9140625 C17.1136583 64.60965847 17.06200616 69.30470241 17 74 C16.34 74 15.68 74 15 74 C15.02618408 73.20118408 15.05236816 72.40236816 15.0793457 71.5793457 C15.82888987 45.12518059 13.14022106 24.35627297 -2 2 C-1.34 2 -0.68 2 0 2 C0 1.34 0 0.68 0 0 Z " fill="#418ABF" transform="translate(407,126)"/>
<path d="M0 0 C2.64365079 1.87613927 2.95241281 2.85723843 4 6 C4.99 6.66 5.98 7.32 7 8 C7 8.99 7 9.98 7 11 C9.475 11.495 9.475 11.495 12 12 C12.33 13.65 12.66 15.3 13 17 C14.32 17 15.64 17 17 17 C17.515625 18.03125 18.03125 19.0625 18.5625 20.125 C20.6406995 23.81044012 23.20170282 26.15122383 26.51171875 28.73828125 C28 30 28 30 29 32 C31.02463255 32.65213292 31.02463255 32.65213292 33 33 C33.625 34.875 33.625 34.875 34 37 C33.34 37.66 32.68 38.32 32 39 C31.62488281 38.55269531 31.24976563 38.10539062 30.86328125 37.64453125 C27.0713729 33.16492164 23.31185431 28.76430987 18.625 25.1875 C16.33767302 23.28139419 14.60196685 21.44492123 12.6875 19.1875 C9.64825987 15.61738823 6.36607292 12.62061439 2.78515625 9.60546875 C1 8 1 8 -1.25 5.125 C-2.81505007 2.92292151 -2.81505007 2.92292151 -4.9375 2.0625 C-7.66343303 1.97989597 -9.55813301 2.84689615 -12 4 C-9.33523943 -1.90054126 -5.94810696 -1.38951679 0 0 Z " fill="#468BC3" transform="translate(403,271)"/>
<path d="M0 0 C0.66 0 1.32 0 2 0 C1.86722656 1.25554687 1.73445313 2.51109375 1.59765625 3.8046875 C1.51273926 4.61147949 1.42782227 5.41827148 1.34033203 6.24951172 C1.15467291 8.00397409 0.96683691 9.75820743 0.77685547 11.51220703 C0.29823348 15.96630486 -0.09552529 20.4034046 -0.375 24.875 C-0.76236687 28.91065843 -1.98432742 31.16709546 -5 34 C-7.88861709 35.44430855 -9.79647701 35.37688506 -13 35 C-15.86984345 32.95429526 -17.74805389 31.38040027 -18.40014648 27.80761719 C-18.49206194 25.25027965 -18.43638468 22.74333625 -18.3125 20.1875 C-18.28994141 19.30384766 -18.26738281 18.42019531 -18.24414062 17.50976562 C-18.18547428 15.3391109 -18.09579979 13.1693331 -18 11 C-17.67 11 -17.34 11 -17 11 C-16.87882813 12.27617187 -16.75765625 13.55234375 -16.6328125 14.8671875 C-16.46400509 16.53650526 -16.2947089 18.20577365 -16.125 19.875 C-16.04636719 20.71675781 -15.96773437 21.55851562 -15.88671875 22.42578125 C-15.80292969 23.23144531 -15.71914062 24.03710938 -15.6328125 24.8671875 C-15.55949707 25.61081543 -15.48618164 26.35444336 -15.41064453 27.12060547 C-15.12608718 29.23382504 -15.12608718 29.23382504 -13 31 C-10.34462628 31.56520003 -7.70855287 31.73788198 -5 32 C-4.96261719 30.87722656 -4.92523438 29.75445312 -4.88671875 28.59765625 C-4.30024597 14.32628747 -4.30024597 14.32628747 -1.69921875 7.8046875 C-0.71514565 5.26478934 -0.34501668 2.69113012 0 0 Z " fill="#2A77B1" transform="translate(234,157)"/>
<path d="M0 0 C0.33 0 0.66 0 1 0 C1.0093457 0.73412109 1.01869141 1.46824219 1.02832031 2.22460938 C1.25297167 16.2939512 1.5716277 29.55010646 6 43 C6.66 43 7.32 43 8 43 C10.23269231 49.45 10.23269231 49.45 9.0546875 52.234375 C8.70664062 52.81703125 8.35859375 53.3996875 8 54 C6.86988348 51.7941576 5.74584212 49.58554973 4.625 47.375 C4.30789062 46.75753906 3.99078125 46.14007813 3.6640625 45.50390625 C-1.0599076 36.1543821 -2.17975787 27.37445002 -2.1875 17 C-2.19974609 16.13632813 -2.21199219 15.27265625 -2.22460938 14.3828125 C-2.23645018 9.18864429 -1.69020887 4.91697125 0 0 Z " fill="#1D74BA" transform="translate(251,170)"/>
<path d="M0 0 C11.22849699 3.30054786 20.19441086 11.59006796 29 19 C30.03125 19.78375 31.0625 20.5675 32.125 21.375 C36.60718631 25.46743098 40.24958595 30.24114128 44 35 C43.505 35.99 43.505 35.99 43 37 C42.01 37 41.02 37 40 37 C39.9175 36.05125 39.835 35.1025 39.75 34.125 C39.5025 33.09375 39.255 32.0625 39 31 C37.21771064 29.85790183 37.21771064 29.85790183 35 29 C33.33333333 27.33333333 31.66666667 25.66666667 30 24 C29.01 23.67 28.02 23.34 27 23 C27 22.01 27 21.02 27 20 C26.030625 19.731875 25.06125 19.46375 24.0625 19.1875 C23.051875 18.795625 22.04125 18.40375 21 18 C20.67 17.01 20.34 16.02 20 15 C17.85035871 13.72565763 17.85035871 13.72565763 14.5 14.125 C12.7675 14.063125 12.7675 14.063125 11 14 C9 11 9 11 9 9 C8.34 8.34 7.68 7.68 7 7 C6.34 6.34 5.68 5.68 5 5 C5 4.34 5 3.68 5 3 C3.68 3 2.36 3 1 3 C0.67 2.01 0.34 1.02 0 0 Z " fill="#2683CA" transform="translate(375,81)"/>
<path d="M0 0 C2.66701495 0.47274847 5.30183576 0.72087956 8 1 C8.66 2.65 9.32 4.3 10 6 C9.46810059 5.86722656 8.93620117 5.73445313 8.38818359 5.59765625 C-0.50803583 3.58438834 -9.5001063 3.32643161 -18.57568359 2.89550781 C-20.70455091 2.79184619 -22.83266188 2.67758446 -24.9609375 2.5625 C-26.84498291 2.47162109 -26.84498291 2.47162109 -28.76708984 2.37890625 C-31.72188797 2.03259552 -33.50026926 1.54599935 -36 0 C-31.44473726 -2.27763137 -25.26078246 -1.49997072 -20.25 -1.6875 C-18.97382813 -1.74744141 -17.69765625 -1.80738281 -16.3828125 -1.86914062 C-14.53042969 -1.9397168 -14.53042969 -1.9397168 -12.640625 -2.01171875 C-11.51172852 -2.05772217 -10.38283203 -2.10372559 -9.21972656 -2.15112305 C-5.79868989 -1.99055119 -3.19202967 -1.1982239 0 0 Z " fill="#146EB6" transform="translate(346,86)"/>
<path d="M0 0 C6.34422915 6.99731157 8.71767549 17.96924435 8.26171875 27.32421875 C8.17535156 28.20722656 8.08898437 29.09023437 8 30 C7.88269531 31.24394531 7.76539063 32.48789063 7.64453125 33.76953125 C6.39788644 45.1126291 6.39788644 45.1126291 3 50 C1.68 49.34 0.36 48.68 -1 48 C-0.58427734 46.87851563 -0.58427734 46.87851563 -0.16015625 45.734375 C0.20207031 44.74953125 0.56429688 43.7646875 0.9375 42.75 C1.47697266 41.28820312 1.47697266 41.28820312 2.02734375 39.796875 C5.70720805 29.21541783 5.02866812 17.3762769 1 7 C0.608125 5.80375 0.21625 4.6075 -0.1875 3.375 C-0.455625 2.59125 -0.72375 1.8075 -1 1 C-0.67 0.67 -0.34 0.34 0 0 Z " fill="#367FB6" transform="translate(367,158)"/>
<path d="M0 0 C0.33 0.99 0.66 1.98 1 3 C0.01 3.33 -0.98 3.66 -2 4 C-2 4.66 -2 5.32 -2 6 C-4.97063112 8.72307853 -7.15596559 10.0389914 -11 11 C-11.33 11.99 -11.66 12.98 -12 14 C-13.77734375 15.0625 -13.77734375 15.0625 -15.9375 16 C-19.20616298 17.42373705 -19.91624972 17.87437458 -22 21 C-21.81767408 24.82748905 -21.81767408 24.82748905 -20 28 C-18.31816052 28.23287008 -16.6287584 28.41264166 -14.9375 28.5625 C-14.01839844 28.64628906 -13.09929687 28.73007812 -12.15234375 28.81640625 C-11.08693359 28.90728516 -11.08693359 28.90728516 -10 29 C-9.67 27.02 -9.34 25.04 -9 23 C-7.68 22.67 -6.36 22.34 -5 22 C-4.67 23.32 -4.34 24.64 -4 26 C-8.25413925 29.47048202 -10.43565744 31.15305123 -15.9375 31.25 C-16.81277344 31.27578125 -17.68804687 31.3015625 -18.58984375 31.328125 C-21 31 -21 31 -22.76171875 29.6953125 C-24.8014828 26.90270178 -24.88280183 24.39874705 -25 21 C-23.34517533 16.15372776 -19.55080326 14.16201214 -15.41015625 11.54296875 C-10.00375399 8.08181981 -4.9781848 4.04477515 0 0 Z " fill="#458BBF" transform="translate(395,250)"/>
<path d="M0 0 C2.27521999 2.78082443 4.4165165 5.59497992 6.4375 8.5625 C8.58807376 11.63474823 11.02530427 13.70523472 14 16 C14 16.66 14 17.32 14 18 C14.825 18.2475 15.65 18.495 16.5 18.75 C19.90239032 19.9651394 22.97426234 21.42836197 26.16796875 23.09765625 C30.15922683 25.06349978 33.79340424 25.28031036 38.1875 25.5625 C40.09595703 25.68818359 40.09595703 25.68818359 42.04296875 25.81640625 C43.01878906 25.87699219 43.99460937 25.93757813 45 26 C45 26.66 45 27.32 45 28 C35.59047635 28.25469387 28.67273008 27.67934003 20 24 C20 23.34 20 22.68 20 22 C17.69 21.67 15.38 21.34 13 21 C12.6596875 19.7934375 12.6596875 19.7934375 12.3125 18.5625 C11.879375 17.716875 11.44625 16.87125 11 16 C10.175 15.835 9.35 15.67 8.5 15.5 C7.675 15.335 6.85 15.17 6 15 C4.875 12.5625 4.875 12.5625 4 10 C3.01 9.34 2.02 8.68 1 8 C0.29947539 5.336937 0.22255182 2.75964263 0 0 Z " fill="#4490BE" transform="translate(287,202)"/>
<path d="M0 0 C0.5775 0.226875 1.155 0.45375 1.75 0.6875 C-0.4507262 3.9885893 -1.07624243 4.18777142 -4.625 5.4375 C-8.6871083 7.14138275 -10.37138006 8.71054429 -12.28515625 12.8203125 C-13.72146448 15.59988876 -15.77397796 17.72259524 -17.8828125 20.01171875 C-19.35325256 21.66262945 -19.35325256 21.66262945 -20.203125 23.84765625 C-20.54859375 24.45480469 -20.8940625 25.06195313 -21.25 25.6875 C-24.875 26.4375 -24.875 26.4375 -28.25 26.6875 C-24.18668175 19.50345144 -9.13528913 -1.26879016 0 0 Z " fill="#3C8BC8" transform="translate(265.25,91.3125)"/>
<path d="M0 0 C0.33 0 0.66 0 1 0 C1.6875 3.3125 1.6875 3.3125 2 7 C1.03738397 8.0360359 0.03312111 9.03425636 -1 10 C-1.91860242 11.86142828 -1.91860242 11.86142828 -2.5625 13.875 C-2.80742187 14.57367188 -3.05234375 15.27234375 -3.3046875 15.9921875 C-3.53414062 16.65476563 -3.76359375 17.31734375 -4 18 C-4.66066719 19.66905395 -5.32438252 21.3369416 -6 23 C-6.66 23 -7.32 23 -8 23 C-8.16435547 23.92619141 -8.16435547 23.92619141 -8.33203125 24.87109375 C-9.4377266 30.77712501 -10.95361435 36.35197559 -13 42 C-13.33 42 -13.66 42 -14 42 C-13.12494686 29.53049281 -9.37790958 9.37790958 0 0 Z " fill="#3381BB" transform="translate(231,126)"/>
<path d="M0 0 C8.57871991 12.86807987 7.09236208 34.35346544 5 49 C4.67 49 4.34 49 4 49 C3.17564896 45.36288847 2.84367613 41.93653853 2.75390625 38.2109375 C2.72103516 37.10363281 2.68816406 35.99632812 2.65429688 34.85546875 C2.59371934 32.55867806 2.53635956 30.26179996 2.48242188 27.96484375 C2.2875875 21.60515566 1.74029889 15.5761413 0.42993164 9.3449707 C-0.15264734 6.16741752 -0.14311483 3.22008374 0 0 Z " fill="#5990BB" transform="translate(435,151)"/>
<path d="M0 0 C5.66288197 0.44845804 9.19734478 2.68646267 13.75 5.8125 C14.42160156 6.25142578 15.09320313 6.69035156 15.78515625 7.14257812 C19.18675111 9.43643919 21.48714981 11.05420359 23 15 C24.93330603 16.09166275 24.93330603 16.09166275 27 17 C28.75 18.625 28.75 18.625 30 20 C29.67 20.66 29.34 21.32 29 22 C25.23469882 21.4550222 23.85057889 20.04185472 21.5 17.125 C17.41825638 12.097034 14.56697039 9.74624664 8 9 C8 8.34 8 7.68 8 7 C6.35 6.67 4.7 6.34 3 6 C3.66 5.67 4.32 5.34 5 5 C4.67 4.34 4.34 3.68 4 3 C1.97536745 2.34786708 1.97536745 2.34786708 0 2 C0 1.34 0 0.68 0 0 Z " fill="#3D88C0" transform="translate(359,110)"/>
<path d="M0 0 C4.39626206 -0.65943931 6.7813146 0.19976398 10.3125 2.6875 C12.93269776 4.78864906 13.87674215 5.64563369 15 8.875 C15 9.57625 15 10.2775 15 11 C16.32 11.33 17.64 11.66 19 12 C19 12.66 19 13.32 19 14 C19.928125 14.4021875 19.928125 14.4021875 20.875 14.8125 C23 16 23 16 25 19 C25.125 21.6875 25.125 21.6875 25 24 C22.37228061 21.38188836 19.75603949 18.75497897 17.16796875 16.09765625 C11.72638219 10.5412721 6.35751571 5.52361695 0 1 C0 0.67 0 0.34 0 0 Z " fill="#2A85C2" transform="translate(380,103)"/>
<path d="M0 0 C4.05509854 3.50886381 6.19552941 7.62767087 8.625 12.3125 C9.01945312 13.04662109 9.41390625 13.78074219 9.8203125 14.53710938 C12.1441776 18.96108904 13.80733283 23.14597286 15 28 C13.68 28.33 12.36 28.66 11 29 C10.814375 27.2984375 10.814375 27.2984375 10.625 25.5625 C10.41875 24.386875 10.2125 23.21125 10 22 C9.34 21.67 8.68 21.34 8 21 C8 20.01 8 19.02 8 18 C7.34 18 6.68 18 6 18 C6 16.68 6 15.36 6 14 C5.34 14 4.68 14 4 14 C3.34 11.36 2.68 8.72 2 6 C1.34 6 0.68 6 0 6 C0 4.02 0 2.04 0 0 Z " fill="#2879BA" transform="translate(419,118)"/>
<path d="M0 0 C0.33 0 0.66 0 1 0 C0.49228528 5.96564796 -1.38592128 10.63809899 -4 16 C-4.66 16 -5.32 16 -6 16 C-6.06058594 16.76699219 -6.12117188 17.53398437 -6.18359375 18.32421875 C-7 21 -7 21 -9.28515625 22.58203125 C-10.65994141 23.19111328 -10.65994141 23.19111328 -12.0625 23.8125 C-12.98160156 24.23144531 -13.90070313 24.65039062 -14.84765625 25.08203125 C-15.55792969 25.38496094 -16.26820313 25.68789062 -17 26 C-15.26224768 22.21218043 -12.94664464 19.94664464 -10 17 C-8.96071948 15.35754033 -7.96613646 13.68652249 -7 12 C-6.40960938 10.97261719 -5.81921875 9.94523438 -5.2109375 8.88671875 C-3.98006737 6.74186208 -2.75091897 4.59601651 -1.5234375 2.44921875 C-1.02070313 1.64097656 -0.51796875 0.83273438 0 0 Z " fill="#3987C2" transform="translate(413,224)"/>
<path d="M0 0 C0.66 0.33 1.32 0.66 2 1 C1.16500965 12.2723697 -3.95839665 22.55337021 -10 32 C-12.21875 33.87890625 -12.21875 33.87890625 -14 35 C-13.64525647 31.89599412 -13.20517446 30.24762434 -11.1875 27.8125 C-8.56917519 24.44608239 -7.40781987 21.11453319 -6.02734375 17.109375 C-5.51880859 16.06523437 -5.51880859 16.06523437 -5 15 C-4.01 14.67 -3.02 14.34 -2 14 C-1.93941406 13.32453125 -1.87882812 12.6490625 -1.81640625 11.953125 C-1.73261719 11.06109375 -1.64882813 10.1690625 -1.5625 9.25 C-1.48128906 8.36828125 -1.40007812 7.4865625 -1.31640625 6.578125 C-1.03761535 4.30649548 -0.61209423 2.20148177 0 0 Z " fill="#3B84B8" transform="translate(404,197)"/>
<path d="M0 0 C1.32 0.33 2.64 0.66 4 1 C3.401875 1.763125 2.80375 2.52625 2.1875 3.3125 C-3.73472175 12.36383891 -3.62004899 23.557898 -4 34 C-4.99 33.67 -5.98 33.34 -7 33 C-7.5402954 20.90338638 -6.55844278 12.49350846 0 2 C0 1.34 0 0.68 0 0 Z " fill="#418CC3" transform="translate(288,157)"/>
<path d="M0 0 C2 1.25 2 1.25 4 3 C4 4.32 4 5.64 4 7 C4.66 7 5.32 7 6 7 C6.81604999 8.9151579 7.62770632 10.83218834 8.4375 12.75 C8.88996094 13.81734375 9.34242188 14.8846875 9.80859375 15.984375 C10.73979553 18.3413841 11.4784072 20.52992835 12 23 C12.66 23 13.32 23 14 23 C13.67 25.97 13.34 28.94 13 32 C12.67 32 12.34 32 12 32 C11.835 30.824375 11.67 29.64875 11.5 28.4375 C9.40683253 18.88173544 3.47137591 9.986246 -2 2 C-1.34 2 -0.68 2 0 2 C0 1.34 0 0.68 0 0 Z " fill="#559BCA" transform="translate(407,126)"/>
<path d="M0 0 C14.25606477 -0.38723717 27.91532803 -0.54233598 41 6 C37.95280133 7.01573289 37.01166996 7.0097124 33.98828125 6.44140625 C33.23095703 6.30283203 32.47363281 6.16425781 31.69335938 6.02148438 C30.51483398 5.79428711 30.51483398 5.79428711 29.3125 5.5625 C28.51521484 5.41490234 27.71792969 5.26730469 26.89648438 5.11523438 C24.92974148 4.75015036 22.96469533 4.37594711 21 4 C21 3.34 21 2.68 21 2 C14.07 1.67 7.14 1.34 0 1 C0 0.67 0 0.34 0 0 Z " fill="#78BAD8" transform="translate(318,103)"/>
<path d="M0 0 C0.33 0 0.66 0 1 0 C1.12117187 1.27617187 1.24234375 2.55234375 1.3671875 3.8671875 C1.53599491 5.53650526 1.7052911 7.20577365 1.875 8.875 C1.95363281 9.71675781 2.03226563 10.55851563 2.11328125 11.42578125 C2.19707031 12.23144531 2.28085938 13.03710938 2.3671875 13.8671875 C2.44050293 14.61081543 2.51381836 15.35444336 2.58935547 16.12060547 C2.87391282 18.23382504 2.87391282 18.23382504 5 20 C7.65537372 20.56520003 10.29144713 20.73788198 13 21 C13 20.34 13 19.68 13 19 C13.99 18.67 14.98 18.34 16 18 C14.63016497 21.16115776 14.0109362 21.9927092 11 24 C7.11638085 24.59098552 5.54874593 24.39253359 2.32421875 22.0859375 C-0.93160728 17.76307605 -0.56705206 14.43910479 -0.3125 9.1875 C-0.28994141 8.30384766 -0.26738281 7.42019531 -0.24414062 6.50976562 C-0.18547428 4.3391109 -0.09579979 2.1693331 0 0 Z " fill="#4787BF" transform="translate(216,168)"/>
<path d="M0 0 C0.66 0 1.32 0 2 0 C-1.12048956 6.71199641 -5.73574936 11.13482407 -12 15 C-13.68083079 16.31543279 -15.3524116 17.64316249 -17 19 C-18 16 -18 16 -17 13 C-11.77777778 10 -11.77777778 10 -9 10 C-8.95875 9.38125 -8.9175 8.7625 -8.875 8.125 C-8.441875 7.073125 -8.441875 7.073125 -8 6 C-6.00428677 5.32060826 -4.00405227 4.65438441 -2 4 C-0.57944932 1.99863756 -0.57944932 1.99863756 0 0 Z " fill="#418DC3" transform="translate(388,232)"/>
<path d="M0 0 C12.94267574 -0.4579977 25.23636249 0.8799318 38 3 C38 3.33 38 3.66 38 4 C33.54147746 3.8596274 29.08323512 3.71170167 24.625 3.5625 C23.37332031 3.52318359 22.12164062 3.48386719 20.83203125 3.44335938 C13.8509578 3.20578358 6.93770064 2.82495273 0 2 C0 1.34 0 0.68 0 0 Z " fill="#4585B9" transform="translate(320,71)"/>
<path d="M0 0 C0.66 0.33 1.32 0.66 2 1 C1.875 2.75 1.875 2.75 1 5 C-0.96498322 6.38442 -2.97048465 7.71203834 -5 9 C-5.9075 9.9075 -6.815 10.815 -7.75 11.75 C-8.4925 12.4925 -9.235 13.235 -10 14 C-10.66 14 -11.32 14 -12 14 C-12.33 15.32 -12.66 16.64 -13 18 C-13.99 18 -14.98 18 -16 18 C-12.59573688 10.5272273 -6.25350037 5.10489826 0 0 Z " fill="#5595C1" transform="translate(280,118)"/>
<path d="M0 0 C6.96148253 5.8380156 13.07402547 12.11767223 19 19 C18.67 19.66 18.34 20.32 18 21 C17.01 21 16.02 21 15 21 C14.87625 19.576875 14.87625 19.576875 14.75 18.125 C14.5025 17.09375 14.255 16.0625 14 15 C12.21771064 13.85790183 12.21771064 13.85790183 10 13 C8.33333333 11.33333333 6.66666667 9.66666667 5 8 C4.01 7.67 3.02 7.34 2 7 C0.8125 3.4375 0.8125 3.4375 0 0 Z " fill="#4289B8" transform="translate(400,97)"/>
<path d="M0 0 C0.33 0.99 0.66 1.98 1 3 C0.01 3.33 -0.98 3.66 -2 4 C-2 4.66 -2 5.32 -2 6 C-4.97063112 8.72307853 -7.15596559 10.0389914 -11 11 C-11.33 11.99 -11.66 12.98 -12 14 C-13.84765625 15.16796875 -13.84765625 15.16796875 -16.0625 16.1875 C-16.79597656 16.53167969 -17.52945312 16.87585938 -18.28515625 17.23046875 C-18.85105469 17.48441406 -19.41695313 17.73835938 -20 18 C-20 17.01 -20 16.02 -20 15 C-18.1640625 13.45703125 -18.1640625 13.45703125 -15.625 11.8125 C-10.16519892 8.162233 -5.07800784 4.15964472 0 0 Z " fill="#4185B8" transform="translate(395,250)"/>
<path d="M0 0 C0.33 0 0.66 0 1 0 C0.98952637 0.67579102 0.97905273 1.35158203 0.96826172 2.04785156 C0.92664024 5.11519642 0.90065427 8.18248178 0.875 11.25 C0.85824219 12.31347656 0.84148437 13.37695312 0.82421875 14.47265625 C0.81777344 15.49746094 0.81132812 16.52226562 0.8046875 17.578125 C0.79421387 18.52075195 0.78374023 19.46337891 0.77294922 20.43457031 C1.01484536 23.16773659 1.41061229 24.76450414 3 27 C6.56206661 27.81870185 6.56206661 27.81870185 10 28 C10 28.33 10 28.66 10 29 C2.46385681 29.37062999 2.46385681 29.37062999 0.40869141 27.72851562 C-2.0186994 24.75001876 -1.66616911 21.00660851 -1.8125 17.3125 C-1.86341797 16.53455078 -1.91433594 15.75660156 -1.96679688 14.95507812 C-2.23162458 9.57324058 -1.52898349 5.16548476 0 0 Z " fill="#136FBC" transform="translate(219,160)"/>
<path d="M0 0 C0 3.24619345 -0.63057634 4.75000673 -1.96875 7.66796875 C-2.37480469 8.56064453 -2.78085938 9.45332031 -3.19921875 10.37304688 C-3.62847656 11.30181641 -4.05773437 12.23058594 -4.5 13.1875 C-5.14388672 14.59805664 -5.14388672 14.59805664 -5.80078125 16.03710938 C-6.86219114 18.36041769 -7.92876607 20.68120906 -9 23 C-9.33 23 -9.66 23 -10 23 C-9.88529863 21.24929483 -9.75780972 19.49942464 -9.625 17.75 C-9.55539063 16.77546875 -9.48578125 15.8009375 -9.4140625 14.796875 C-9.01534751 12.10366811 -8.36492937 10.33036721 -7 8 C-6.34 8 -5.68 8 -5 8 C-4.5978125 6.2984375 -4.5978125 6.2984375 -4.1875 4.5625 C-3.795625 3.386875 -3.40375 2.21125 -3 1 C-2.01 0.67 -1.02 0.34 0 0 Z " fill="#4A93C3" transform="translate(246,133)"/>
<path d="M0 0 C-5.67751955 3.15417753 -11.16914541 3.15780236 -17.5 3.125 C-18.24636719 3.12886719 -18.99273437 3.13273437 -19.76171875 3.13671875 C-23.64139586 3.12985206 -27.21080898 2.94729776 -31 2 C-31 1.67 -31 1.34 -31 1 C-20.64523146 0.29798179 -10.38324014 -0.14809693 0 0 Z " fill="#127ACC" transform="translate(345,258)"/>
<path d="M0 0 C1.82188411 5.46565233 -1.76885374 10.92357885 -4 16 C-5.89101912 19.73343728 -7.89190454 23.38508717 -10 27 C-10.33 27 -10.66 27 -11 27 C-11 25.02 -11 23.04 -11 21 C-10.34 21 -9.68 21 -9 21 C-9 20.34 -9 19.68 -9 19 C-8.34 19 -7.68 19 -7 19 C-6.67 16.69 -6.34 14.38 -6 12 C-5.34 12 -4.68 12 -4 12 C-3.8453125 10.4221875 -3.8453125 10.4221875 -3.6875 8.8125 C-3.02266585 5.12569246 -2.11433704 3.03361401 0 0 Z " fill="#5693C4" transform="translate(434,215)"/>
<path d="M0 0 C1.02802734 0.0515625 2.05605469 0.103125 3.11523438 0.15625 C4.18708984 0.22070312 5.25894531 0.28515625 6.36328125 0.3515625 C7.9884668 0.43664062 7.9884668 0.43664062 9.64648438 0.5234375 C12.32358132 0.66495804 14.99974701 0.81637401 17.67578125 0.9765625 C17.67578125 1.6365625 17.67578125 2.2965625 17.67578125 2.9765625 C20.97578125 2.9765625 24.27578125 2.9765625 27.67578125 2.9765625 C27.67578125 3.3065625 27.67578125 3.6365625 27.67578125 3.9765625 C21.73578125 4.4715625 21.73578125 4.4715625 15.67578125 4.9765625 C15.67578125 4.3165625 15.67578125 3.6565625 15.67578125 2.9765625 C7.75578125 2.6465625 -0.16421875 2.3165625 -8.32421875 1.9765625 C-4.91183352 -0.29836099 -3.9637761 -0.21899315 0 0 Z " fill="#127BD2" transform="translate(328.32421875,73.0234375)"/>
<path d="M0 0 C11.23728814 7.71186441 11.23728814 7.71186441 13 13 C10.875 13.375 10.875 13.375 8 13 C5.62772144 11.29995963 3.62254782 9.43103384 2 7 C2 5.68 2 4.36 2 3 C1.34 3 0.68 3 0 3 C0 2.01 0 1.02 0 0 Z " fill="#3B8CC7" transform="translate(456,285)"/>
<path d="M0 0 C0.33 0 0.66 0 1 0 C2.27060931 5.24126342 3.01373472 10.0147695 0.5 14.9375 C-0.2425 15.9584375 -0.2425 15.9584375 -1 17 C-2.32 16.34 -3.64 15.68 -5 15 C-4.72285156 14.25234375 -4.44570313 13.5046875 -4.16015625 12.734375 C-3.79792969 11.74953125 -3.43570312 10.7646875 -3.0625 9.75 C-2.52302734 8.28820312 -2.52302734 8.28820312 -1.97265625 6.796875 C-1.18620345 4.53542839 -0.52748399 2.33203448 0 0 Z " fill="#418BC7" transform="translate(371,191)"/>
<path d="M0 0 C2.31 0.66 4.62 1.32 7 2 C7 2.66 7 3.32 7 4 C7.61875 4.268125 8.2375 4.53625 8.875 4.8125 C11 6 11 6 13 9 C13.125 11.6875 13.125 11.6875 13 14 C11.88085919 12.88085919 10.76206063 11.76137493 9.64453125 10.640625 C8.39693967 9.39599682 7.14323731 8.15749029 5.88671875 6.921875 C5.16097656 6.20515625 4.43523437 5.4884375 3.6875 4.75 C2.99011719 4.06421875 2.29273438 3.3784375 1.57421875 2.671875 C0 1 0 1 0 0 Z " fill="#4E97C9" transform="translate(392,113)"/>
<path d="M0 0 C1.9375 1.1875 1.9375 1.1875 3 3 C3.6875 6.1875 3.6875 6.1875 4 9 C1 8 1 8 -0.9375 5.5 C-2.74205947 2.95855663 -2.74205947 2.95855663 -4.9375 2.0625 C-7.66343303 1.97989597 -9.55813301 2.84689615 -12 4 C-9.32621264 -1.92052916 -5.95887369 -1.35539955 0 0 Z " fill="#478DBC" transform="translate(403,271)"/>
<path d="M0 0 C2.5 1.3125 2.5 1.3125 5 3 C5 3.99 5 4.98 5 6 C6.65 6.33 8.3 6.66 10 7 C10.33 8.65 10.66 10.3 11 12 C12.32 12 13.64 12 15 12 C14.34 13.32 13.68 14.64 13 16 C11.198683 14.28001336 9.40931537 12.54997709 7.625 10.8125 C7.11710937 10.32974609 6.60921875 9.84699219 6.0859375 9.34960938 C3.11654707 6.43882533 1.21251213 3.99544661 0 0 Z " fill="#2F81C1" transform="translate(405,276)"/>
<path d="M0 0 C2.303753 1.80293713 2.96717525 2.86870101 3.6875 5.75 C4.36413989 12.78705485 3.83487564 19.18474763 2 26 C1.34 26 0.68 26 0 26 C0.165 24.72125 0.33 23.4425 0.5 22.125 C1.32308647 14.64667154 1.28944287 7.4142965 0 0 Z " fill="#1079CF" transform="translate(373,171)"/>
<path d="M0 0 C2.97 0 5.94 0 9 0 C9 0.66 9 1.32 9 2 C10.27875 2.0825 11.5575 2.165 12.875 2.25 C15.0859375 2.51171875 15.0859375 2.51171875 17 3 C18.5 5.0625 18.5 5.0625 19 7 C14.50832076 7 11.30459191 5.70154897 7.25 4 C6.55261719 3.71382813 5.85523438 3.42765625 5.13671875 3.1328125 C3.42190927 2.42809627 1.71059855 1.714877 0 1 C0 0.67 0 0.34 0 0 Z " fill="#2A7FC1" transform="translate(357,92)"/>
<path d="M0 0 C1.32 0 2.64 0 4 0 C6.14711018 5.50196983 6.89455962 10.31632113 5 16 C4.34 16 3.68 16 3 16 C2.92652344 14.89591797 2.92652344 14.89591797 2.8515625 13.76953125 C2.77679688 12.79371094 2.70203125 11.81789063 2.625 10.8125 C2.55539062 9.84957031 2.48578125 8.88664062 2.4140625 7.89453125 C1.99784147 4.98491062 1.20125904 2.67109226 0 0 Z " fill="#297BB2" transform="translate(466,298)"/>
<path d="M0 0 C0.66 0.33 1.32 0.66 2 1 C1.67 2.65 1.34 4.3 1 6 C-0.93455454 6.38991022 -2.87281828 6.76145349 -4.8125 7.125 C-5.89144531 7.33382812 -6.97039062 7.54265625 -8.08203125 7.7578125 C-11 8 -11 8 -14 6 C-13.24074219 5.73445312 -12.48148437 5.46890625 -11.69921875 5.1953125 C-10.70535156 4.84210938 -9.71148437 4.48890625 -8.6875 4.125 C-7.70136719 3.77695313 -6.71523438 3.42890625 -5.69921875 3.0703125 C-2.84405623 2.04694076 -2.84405623 2.04694076 0 0 Z " fill="#3A88C9" transform="translate(351,221)"/>
<path d="M0 0 C2 2 2 2 2.125 5.625 C2.08375 6.73875 2.0425 7.8525 2 9 C1.01 9.33 0.02 9.66 -1 10 C-1.33 11.65 -1.66 13.3 -2 15 C-2.66 15 -3.32 15 -4 15 C-4.59720137 9.17728663 -2.528243 5.0790596 0 0 Z " fill="#287EC1" transform="translate(418,213)"/>
<path d="M0 0 C0.47050781 0.40992187 0.94101562 0.81984375 1.42578125 1.2421875 C2.04839844 1.78101562 2.67101562 2.31984375 3.3125 2.875 C4.23482422 3.67550781 4.23482422 3.67550781 5.17578125 4.4921875 C7.13498212 6.1640447 7.13498212 6.1640447 10 8 C10.6875 11.125 10.6875 11.125 11 14 C11.99 13.67 12.98 13.34 14 13 C14.33 14.65 14.66 16.3 15 18 C14.34 18 13.68 18 13 18 C13 17.34 13 16.68 13 16 C12.01 15.67 11.02 15.34 10 15 C10 14.34 10 13.68 10 13 C9.34 13 8.68 13 8 13 C7.773125 12.278125 7.54625 11.55625 7.3125 10.8125 C5.75173074 7.46799444 3.6266129 5.55926385 1 3 C0.67 2.01 0.34 1.02 0 0 Z " fill="#1577CB" transform="translate(404,104)"/>
<path d="M0 0 C1.41905396 4.25716188 0.43996563 7.70773284 -0.3125 12.0625 C-0.44333984 12.89072266 -0.57417969 13.71894531 -0.70898438 14.57226562 C-0.84240234 15.36439453 -0.97582031 16.15652344 -1.11328125 16.97265625 C-1.23485596 17.69718994 -1.35643066 18.42172363 -1.48168945 19.16821289 C-2 21 -2 21 -4 23 C-4.44763271 15.39024398 -3.44359692 6.88719383 0 0 Z " fill="#4689B6" transform="translate(253,154)"/>
<path d="M0 0 C0.92232422 0.01353516 1.84464844 0.02707031 2.79492188 0.04101562 C5.05140383 0.07609047 7.30663226 0.12523613 9.5625 0.1875 C9.5625 0.5175 9.5625 0.8475 9.5625 1.1875 C8.27279297 1.24357422 8.27279297 1.24357422 6.95703125 1.30078125 C-1.48294469 1.77018013 -9.24904167 3.02476765 -17.4375 5.1875 C-17.4375 4.5275 -17.4375 3.8675 -17.4375 3.1875 C-11.48398507 0.0759922 -6.64865854 -0.1866794 0 0 Z " fill="#559AC2" transform="translate(325.4375,136.8125)"/>
<path d="M0 0 C0.99 0 1.98 0 3 0 C7.62962963 6.94444444 7.62962963 6.94444444 8 10 C7.37436047 11.35306962 6.7111462 12.68984989 6 14 C4.99515796 12.04414675 3.99626195 10.08523763 3 8.125 C2.1646875 6.48917969 2.1646875 6.48917969 1.3125 4.8203125 C0 2 0 2 0 0 Z " fill="#3689CB" transform="translate(253,210)"/>
<path d="M0 0 C5.69139902 1.09698167 10.74567937 2.54053077 16 5 C15.67 5.66 15.34 6.32 15 7 C15.66 7.66 16.32 8.32 17 9 C14.625 8.6875 14.625 8.6875 12 8 C11.34 7.01 10.68 6.02 10 5 C7.6758266 4.31767386 5.38851242 3.99247551 2.99609375 3.625 C2.33738281 3.41875 1.67867188 3.2125 1 3 C0.67 2.01 0.34 1.02 0 0 Z " fill="#4A8DC0" transform="translate(358,75)"/>
<path d="M0 0 C4.75460529 0.29716283 7.53631832 2.6795361 11.1328125 5.52734375 C12.69767934 6.76155881 14.34171415 7.8944761 16 9 C13 10 13 10 10.625 8.92578125 C9.75875 8.39339844 8.8925 7.86101562 8 7.3125 C7.13375 6.79300781 6.2675 6.27351562 5.375 5.73828125 C3.0290403 4.02125482 1.59580079 2.40944922 0 0 Z " fill="#4D8DBE" transform="translate(276,243)"/>
<path d="M0 0 C2 1.25 2 1.25 4 3 C4 4.32 4 5.64 4 7 C4.66 7 5.32 7 6 7 C6.66 8.98 7.32 10.96 8 13 C7.34 13 6.68 13 6 13 C6 12.34 6 11.68 6 11 C5.34 11 4.68 11 4 11 C2.4921875 9.03125 2.4921875 9.03125 0.875 6.5 C0.33617187 5.6646875 -0.20265625 4.829375 -0.7578125 3.96875 C-1.16773438 3.3190625 -1.57765625 2.669375 -2 2 C-1.34 2 -0.68 2 0 2 C0 1.34 0 0.68 0 0 Z " fill="#2F85C6" transform="translate(407,126)"/>
<path d="M0 0 C0.5775 0.226875 1.155 0.45375 1.75 0.6875 C-0.46069174 4.00353762 -1.65687281 4.56994393 -5.1875 6.1875 C-8.44494253 7.68429244 -10.86786157 8.983026 -13.25 11.6875 C-13.91 11.3575 -14.57 11.0275 -15.25 10.6875 C-13.83510266 9.41469706 -12.41800334 8.1443417 -11 6.875 C-10.21109375 6.16730469 -9.4221875 5.45960937 -8.609375 4.73046875 C-2.71136946 -0.37657909 -2.71136946 -0.37657909 0 0 Z " fill="#4C91C4" transform="translate(265.25,91.3125)"/>
<path d="M0 0 C1.32 0.33 2.64 0.66 4 1 C3.401875 1.763125 2.80375 2.52625 2.1875 3.3125 C-0.8107599 7.74053508 -1.79227005 12.85799824 -3 18 C-3.33 18 -3.66 18 -4 18 C-4.48289522 11.21263938 -4.28822577 7.36028221 0 2 C0 1.34 0 0.68 0 0 Z " fill="#5E9DC4" transform="translate(288,157)"/>
<path d="M0 0 C0 3.74016583 -0.9341591 4.45276193 -3.375 7.1875 C-4.00148437 7.90292969 -4.62796875 8.61835937 -5.2734375 9.35546875 C-7 11 -7 11 -9 11 C-8.49821137 7.28676414 -7.97466703 5.33723838 -5 3 C-3.35394174 1.96642853 -1.69036558 0.95939668 0 0 Z " fill="#2D83C5" transform="translate(254,100)"/>
<path d="M0 0 C3.45462112 0.25589786 4.27381547 1.28626163 6.75 3.875 C9 7 9 7 9 10 C9.99 10.33 10.98 10.66 12 11 C12 11.66 12 12.32 12 13 C8.64065168 11.56875447 6.68207173 9.82271696 4.3125 7.0625 C3.71050781 6.37285156 3.10851562 5.68320313 2.48828125 4.97265625 C1 3 1 3 0 0 Z " fill="#5C99C6" transform="translate(264,230)"/>
<path d="M0 0 C0.33 0 0.66 0 1 0 C1.6875 3.3125 1.6875 3.3125 2 7 C0.6875 8.5 0.6875 8.5 -1 10 C-1.74386068 12.30988315 -2.42190703 14.64315944 -3 17 C-4.08635236 13.67930592 -3.90041441 11.33794786 -3.1875 7.9375 C-3.01605469 7.08027344 -2.84460938 6.22304687 -2.66796875 5.33984375 C-2 3 -2 3 0 0 Z " fill="#3188C8" transform="translate(231,126)"/>
<path d="M0 0 C-1 2 -1 2 -2.78515625 2.6328125 C-7.9795261 3.75543789 -12.68658027 4.19321526 -18 4 C-11.42984524 -0.38010317 -7.66670345 -1.47953926 0 0 Z " fill="#3E8EC3" transform="translate(312,107)"/>
<path d="M0 0 C3.41664873 -0.02908357 6.8332655 -0.04682691 10.25 -0.0625 C11.70212891 -0.07506836 11.70212891 -0.07506836 13.18359375 -0.08789062 C14.11816406 -0.09111328 15.05273438 -0.09433594 16.015625 -0.09765625 C16.87446289 -0.10289307 17.73330078 -0.10812988 18.61816406 -0.11352539 C20.94109606 -0.00280754 22.83002839 0.15555064 25 1 C25.33 1.99 25.66 2.98 26 4 C25.46375 3.86722656 24.9275 3.73445313 24.375 3.59765625 C16.30081205 1.77830798 8.24018566 1.38849511 0 1 C0 0.67 0 0.34 0 0 Z " fill="#619BC3" transform="translate(330,88)"/>
<path d="M0 0 C0 3.83226034 -0.88519543 6.61976577 -3.3125 9.625 C-5.43975476 11.35831869 -7.55732132 12.74734427 -10 14 C-10.66 13.67 -11.32 13.34 -12 13 C-10.37660195 11.29115995 -8.70680947 9.62553283 -7 8 C-6.34 8 -5.68 8 -5 8 C-4.731875 7.4225 -4.46375 6.845 -4.1875 6.25 C-2.98280141 3.9674132 -1.59201885 2.0262058 0 0 Z " fill="#5BA0CB" transform="translate(365,207)"/>
<path d="M0 0 C0 3 0 3 -1.625 4.6875 C-4.7067834 6.39059083 -6.52484004 6.50679416 -10 6 C-11.32 4.68 -12.64 3.36 -14 2 C-10.04 2.33 -6.08 2.66 -2 3 C-2 2.34 -2 1.68 -2 1 C-1.34 0.67 -0.68 0.34 0 0 Z " fill="#5E9BC4" transform="translate(231,186)"/>
<path d="M0 0 C4.46182436 1.31074365 7.99618757 3.07066011 11.875 5.625 C12.84179688 6.25664063 13.80859375 6.88828125 14.8046875 7.5390625 C15.52914063 8.02117187 16.25359375 8.50328125 17 9 C14.46100862 9.9435441 13.39090725 10.16906025 10.859375 9.07421875 C10.16328125 8.61660156 9.4671875 8.15898438 8.75 7.6875 C8.04359375 7.23761719 7.3371875 6.78773437 6.609375 6.32421875 C6.07828125 5.88722656 5.5471875 5.45023437 5 5 C5 4.34 5 3.68 5 3 C3.68 3 2.36 3 1 3 C0.67 2.01 0.34 1.02 0 0 Z " fill="#669CC7" transform="translate(375,81)"/>
<path d="M0 0 C0.66 0 1.32 0 2 0 C2.33773438 0.61488281 2.67546875 1.22976562 3.0234375 1.86328125 C3.46945312 2.67152344 3.91546875 3.47976562 4.375 4.3125 C4.81585938 5.11300781 5.25671875 5.91351563 5.7109375 6.73828125 C6.73513335 8.53527943 7.85267138 10.27900708 9 12 C8.67 12.99 8.34 13.98 8 15 C7.38125 14.01 6.7625 13.02 6.125 12 C5.42375 11.01 4.7225 10.02 4 9 C3.34 9 2.68 9 2 9 C1.34 6.03 0.68 3.06 0 0 Z " fill="#1E7CC8" transform="translate(363,150)"/>
<path d="M0 0 C5.70629354 0.42797202 9.41078616 2.84345952 14 6 C13.01 6.66 12.02 7.32 11 8 C5.125 5.25 5.125 5.25 4 3 C1.97536745 2.34786708 1.97536745 2.34786708 0 2 C0 1.34 0 0.68 0 0 Z " fill="#5997C3" transform="translate(359,110)"/>
<path d="M0 0 C0.66 0.66 1.32 1.32 2 2 C2.66 1.67 3.32 1.34 4 1 C3.48594831 5.96916636 2.76615118 10.29026351 1 15 C0.67 15 0.34 15 0 15 C0 10.05 0 5.1 0 0 Z " fill="#438BC1" transform="translate(435,200)"/>
<path d="M0 0 C0 0.66 0 1.32 0 2 C-0.66 2.66 -1.32 3.32 -2 4 C-2 4.66 -2 5.32 -2 6 C-5.3 6.33 -8.6 6.66 -12 7 C-3.55172414 0 -3.55172414 0 0 0 Z " fill="#478CC4" transform="translate(294,111)"/>
<path d="M0 0 C0.33 1.32 0.66 2.64 1 4 C0.195625 4.391875 -0.60875 4.78375 -1.4375 5.1875 C-4.23064738 6.76948191 -4.23064738 6.76948191 -4.8125 9.6875 C-4.9053125 10.8321875 -4.9053125 10.8321875 -5 12 C-5.99 11.34 -6.98 10.68 -8 10 C-7.43224464 8.70141061 -6.84508337 7.41129559 -6.25 6.125 C-5.92515625 5.40570313 -5.6003125 4.68640625 -5.265625 3.9453125 C-3.78070314 1.6629326 -2.49584592 0.99624102 0 0 Z " fill="#0F78CF" transform="translate(260,96)"/>
<path d="M0 0 C1.15518918 0.90484792 2.29885406 1.8244206 3.4375 2.75 C4.07558594 3.26046875 4.71367187 3.7709375 5.37109375 4.296875 C7.18810554 6.19667629 7.60423197 7.43586908 8 10 C6.68 9.67 5.36 9.34 4 9 C4 8.34 4 7.68 4 7 C3.01 6.67 2.02 6.34 1 6 C0.67 4.02 0.34 2.04 0 0 Z " fill="#3C81B7" transform="translate(426,254)"/>
<path d="M0 0 C0.66 0.33 1.32 0.66 2 1 C0.68 3.31 -0.64 5.62 -2 8 C-3.98 8 -5.96 8 -8 8 C-7.67 6.68 -7.34 5.36 -7 4 C-5.02 3.67 -3.04 3.34 -1 3 C-0.67 2.01 -0.34 1.02 0 0 Z " fill="#0E76CC" transform="translate(391,256)"/>
<path d="M0 0 C0.33 0 0.66 0 1 0 C1.50932612 8.14921797 -0.35242495 13.81586306 -4 21 C-3.39700836 13.76410027 -1.8849413 7.00629124 0 0 Z " fill="#538DBB" transform="translate(221,147)"/>
<path d="M0 0 C4.95 0.99 4.95 0.99 10 2 C10 2.66 10 3.32 10 4 C11.65 4.33 13.3 4.66 15 5 C15 5.66 15 6.32 15 7 C3.99280576 3.4028777 3.99280576 3.4028777 1 2 C0.67 1.34 0.34 0.68 0 0 Z " fill="#1476C1" transform="translate(349,108)"/>
<path d="M0 0 C0.66 0.99 1.32 1.98 2 3 C-2.30769231 6.07692308 -2.30769231 6.07692308 -5.8125 5.6875 C-6.534375 5.460625 -7.25625 5.23375 -8 5 C-5.59563974 1.39345961 -4.05320393 1.14547068 0 0 Z " fill="#2C81C3" transform="translate(273,86)"/>
<path d="M0 0 C0 0.99 0 1.98 0 3 C-1.96875 4.82421875 -1.96875 4.82421875 -4.5 6.6875 C-5.3353125 7.31011719 -6.170625 7.93273437 -7.03125 8.57421875 C-7.6809375 9.04472656 -8.330625 9.51523438 -9 10 C-9.33 9.34 -9.66 8.68 -10 8 C-9.34 7.67 -8.68 7.34 -8 7 C-7.566875 6.195625 -7.13375 5.39125 -6.6875 4.5625 C-4.72713571 1.58565053 -3.35337589 0.99694959 0 0 Z " fill="#1076CA" transform="translate(403,246)"/>
<path d="M0 0 C0.66 0 1.32 0 2 0 C1.34 6.27 0.68 12.54 0 19 C-0.33 19 -0.66 19 -1 19 C-1.93838047 12.10163546 -2.13645572 6.66071488 0 0 Z " fill="#579AC4" transform="translate(234,157)"/>
<path d="M0 0 C0.99 0.495 0.99 0.495 2 1 C2 1.66 2 2.32 2 3 C2.598125 3.268125 3.19625 3.53625 3.8125 3.8125 C5.97224808 4.98493467 7.35790256 6.19369282 9 8 C8.67 8.66 8.34 9.32 8 10 C4.74275395 9.43840585 2.96209599 8.70956113 1 6 C0.3125 2.8125 0.3125 2.8125 0 0 Z " fill="#5095C3" transform="translate(380,122)"/>
<path d="M0 0 C2.94721162 2.74395564 5.19168608 5.38337216 7 9 C6.67 9.66 6.34 10.32 6 11 C5.01 10.67 4.02 10.34 3 10 C2.3125 7.9375 2.3125 7.9375 2 6 C1.34 6 0.68 6 0 6 C0 4.02 0 2.04 0 0 Z " fill="#458DBE" transform="translate(419,118)"/>
<path d="M0 0 C0.71204468 2.21525012 1.10759767 3.59650874 0.5 5.875 C-0.17990599 8.76460047 0.41142762 11.12253502 1 14 C0.34 14 -0.32 14 -1 14 C-3.22532845 9.68024478 -3.06433568 6.70081591 -2 2 C-1.34 1.34 -0.68 0.68 0 0 Z " fill="#679BC5" transform="translate(373,266)"/>
<path d="M0 0 C0 3.65100394 -1.0447585 5.10121798 -2.9375 8.1875 C-3.48277344 9.08855469 -4.02804688 9.98960937 -4.58984375 10.91796875 C-5.05519531 11.60503906 -5.52054688 12.29210937 -6 13 C-6.33 13 -6.66 13 -7 13 C-7 11.35 -7 9.7 -7 8 C-6.34 8 -5.68 8 -5 8 C-4.731875 6.865625 -4.46375 5.73125 -4.1875 4.5625 C-3.795625 3.386875 -3.40375 2.21125 -3 1 C-2.01 0.67 -1.02 0.34 0 0 Z " fill="#3B86BA" transform="translate(246,133)"/>
<path d="M0 0 C6.27 0.33 12.54 0.66 19 1 C19 1.33 19 1.66 19 2 C9.595 2.495 9.595 2.495 0 3 C0 2.01 0 1.02 0 0 Z " fill="#5BA0C8" transform="translate(307,87)"/>
<path d="M0 0 C0 0.66 0 1.32 0 2 C-1.7015625 2.2165625 -1.7015625 2.2165625 -3.4375 2.4375 C-6.80777201 2.61171478 -6.80777201 2.61171478 -8 4 C-9.99958364 4.04080783 -12.00045254 4.04254356 -14 4 C-14.33 4.66 -14.66 5.32 -15 6 C-15.66 5.34 -16.32 4.68 -17 4 C-15.10751181 3.32389577 -13.2108398 2.65949561 -11.3125 2 C-10.25675781 1.62875 -9.20101563 1.2575 -8.11328125 0.875 C-5.21637944 0.0608143 -2.98299377 -0.17709796 0 0 Z " fill="#59A0C6" transform="translate(304,74)"/>
<path d="M0 0 C2.64 0 5.28 0 8 0 C8 0.99 8 1.98 8 3 C3.05 3 -1.9 3 -7 3 C-7 2.67 -7 2.34 -7 2 C-4.69 2 -2.38 2 0 2 C0 1.34 0 0.68 0 0 Z " fill="#146FAF" transform="translate(332,228)"/>
<path d="M0 0 C0.66 0.33 1.32 0.66 2 1 C0.60344703 4.49873271 -0.71260484 5.70891831 -4.125 7.25 C-5.21167969 7.75273437 -5.21167969 7.75273437 -6.3203125 8.265625 C-7.15175781 8.62914062 -7.15175781 8.62914062 -8 9 C-8 8.01 -8 7.02 -8 6 C-6.25 4.39453125 -6.25 4.39453125 -4 2.8125 C-3.2575 2.28269531 -2.515 1.75289063 -1.75 1.20703125 C-1.1725 0.80871094 -0.595 0.41039062 0 0 Z " fill="#458FBC" transform="translate(383,259)"/>
<path d="M0 0 C0.99 0 1.98 0 3 0 C1.68544658 2.93246533 0.25126383 4.74873617 -2 7 C-3.03357147 8.64605826 -4.04060332 10.30963442 -5 12 C-5 7.25077028 -3.22352925 3.48141159 0 0 Z " fill="#5C9FC2" transform="translate(253,121)"/>
<path d="M0 0 C0.33 0 0.66 0 1 0 C1 2.64 1 5.28 1 8 C-0.32 8.33 -1.64 8.66 -3 9 C-3 4.73012377 -2.36301527 3.40274199 0 0 Z " fill="#4087C4" transform="translate(236,118)"/>
<path d="M0 0 C5.66104589 0.49658297 9.87674471 1.54510684 15 4 C11.61725734 5.12758089 10.23221777 4.81750262 6.8125 4.0625 C5.91144531 3.86785156 5.01039063 3.67320313 4.08203125 3.47265625 C3.39496094 3.31667969 2.70789063 3.16070312 2 3 C2 2.34 2 1.68 2 1 C1.34 0.67 0.68 0.34 0 0 Z " fill="#5F9CC6" transform="translate(344,105)"/>
<path d="M0 0 C2.31 0 4.62 0 7 0 C7 0.66 7 1.32 7 2 C5.2984375 2.680625 5.2984375 2.680625 3.5625 3.375 C-0.04721692 4.57095806 -0.04721692 4.57095806 -1 7 C-1.66 6.67 -2.32 6.34 -3 6 C-2.01 4.02 -1.02 2.04 0 0 Z " fill="#1176C7" transform="translate(392,268)"/>
<path d="M0 0 C0.33 0 0.66 0 1 0 C1.27429625 5.39449293 1.36055646 8.51925805 -2 13 C-3.40070613 8.79788161 -2.76587588 5.66690632 -0.9375 1.6875 C-0.628125 1.130625 -0.31875 0.57375 0 0 Z " fill="#1274C7" transform="translate(434,207)"/>
<path d="M0 0 C2.97 0.495 2.97 0.495 6 1 C6 1.66 6 2.32 6 3 C7.98 3.66 9.96 4.32 12 5 C8.23375329 6.25541557 6.62811066 5.37061958 3 4 C3 3.34 3 2.68 3 2 C2.01 2 1.02 2 0 2 C0 1.34 0 0.68 0 0 Z " fill="#1178CD" transform="translate(301,223)"/>
<path d="M0 0 C2.97550031 3.0684847 3.96474513 4.46236331 4.25 8.8125 C4.1675 9.864375 4.085 10.91625 4 12 C1.77174356 9.77174356 1.30760631 8.34238372 0.375 5.375 C0.11460937 4.55773437 -0.14578125 3.74046875 -0.4140625 2.8984375 C-0.60742188 2.27195313 -0.80078125 1.64546875 -1 1 C-0.67 0.67 -0.34 0.34 0 0 Z " fill="#599AC3" transform="translate(367,158)"/>
<path d="M0 0 C0.66 0 1.32 0 2 0 C0.44396229 3.81936528 -1.95604931 6.26044438 -5 9 C-5.66 9 -6.32 9 -7 9 C-6.1875 7.0625 -6.1875 7.0625 -5 5 C-4.01 4.67 -3.02 4.34 -2 4 C-0.79117904 1.99983534 -0.79117904 1.99983534 0 0 Z " fill="#3C84B5" transform="translate(388,232)"/>
<path d="M0 0 C-0.1875 2.375 -0.1875 2.375 -1 5 C-3.5625 6.3125 -3.5625 6.3125 -6 7 C-6.33 6.01 -6.66 5.02 -7 4 C-2.25 0 -2.25 0 0 0 Z " fill="#1071C0" transform="translate(359,218)"/>
<path d="M0 0 C0.66 0.66 1.32 1.32 2 2 C1.875 5.5 1.875 5.5 1 9 C-1.0625 10.4375 -1.0625 10.4375 -3 11 C-2.32829194 7.1936543 -1.27253436 3.64793184 0 0 Z " fill="#1175C7" transform="translate(401,202)"/>
<path d="M0 0 C0.99 0.33 1.98 0.66 3 1 C3.33 3.31 3.66 5.62 4 8 C-0.875 3.25 -0.875 3.25 -2 1 C-1.34 0.67 -0.68 0.34 0 0 Z " fill="#468DC1" transform="translate(360,148)"/>
<path d="M0 0 C4.92307692 4.30769231 4.92307692 4.30769231 5.3125 7.8125 C5.209375 8.534375 5.10625 9.25625 5 10 C1.32769295 6.92000054 0.43197635 4.7517398 0 0 Z " fill="#3B8CC9" transform="translate(400,117)"/>
<path d="M0 0 C1.98 0 3.96 0 6 0 C6 0.66 6 1.32 6 2 C3.1875 3.5625 3.1875 3.5625 0 5 C-0.99 4.67 -1.98 4.34 -3 4 C-2.67 3.34 -2.34 2.68 -2 2 C-1.34 2 -0.68 2 0 2 C0 1.34 0 0.68 0 0 Z " fill="#1476C2" transform="translate(294,111)"/>
<path d="M0 0 C0.66 0.33 1.32 0.66 2 1 C1.67 1.556875 1.34 2.11375 1 2.6875 C-0.1309601 5.30284522 -0.15662974 7.1806646 0 10 C0.99 10.33 1.98 10.66 3 11 C2.01 11.495 2.01 11.495 1 12 C-2 11 -2 11 -2.875 9.375 C-3.06657088 5.73515323 -1.56996079 3.26551844 0 0 Z " fill="#107CCE" transform="translate(419,241)"/>
<path d="M0 0 C2.13586678 3.20380017 2.23132175 4.01939967 2.125 7.6875 C2.10695312 8.49574219 2.08890625 9.30398437 2.0703125 10.13671875 C2.04710937 10.75160156 2.02390625 11.36648437 2 12 C-0.5847236 8.12291459 -0.62782738 5.61494043 -1 1 C-0.67 0.67 -0.34 0.34 0 0 Z " fill="#5495C1" transform="translate(251,198)"/>
<path d="M0 0 C0.33 0 0.66 0 1 0 C1.02687279 1.81242052 1.04633715 3.62495233 1.0625 5.4375 C1.07410156 6.44683594 1.08570313 7.45617187 1.09765625 8.49609375 C1 11 1 11 0 12 C-2.33297433 12.04092937 -4.66705225 12.04241723 -7 12 C-7 11.67 -7 11.34 -7 11 C-5.35 11 -3.7 11 -2 11 C-1.34 7.37 -0.68 3.74 0 0 Z " fill="#0B79CF" transform="translate(229,176)"/>
<path d="M0 0 C-1.55500981 3.81684226 -4.03595495 6.19195732 -7 9 C-6.51058824 3.49411765 -6.51058824 3.49411765 -4.0625 1.125 C-2 0 -2 0 0 0 Z " fill="#448EBA" transform="translate(299,147)"/>
<path d="M0 0 C0.99 0.33 1.98 0.66 3 1 C4.1875 4.5625 4.1875 4.5625 5 8 C3.68 8.33 2.36 8.66 1 9 C0.67 6.03 0.34 3.06 0 0 Z " fill="#418ABE" transform="translate(429,138)"/>
<path d="M0 0 C0 1.32 0 2.64 0 4 C-2.31 4.66 -4.62 5.32 -7 6 C-6.1875 3.5625 -6.1875 3.5625 -5 1 C-2 0 -2 0 0 0 Z " fill="#2E7FC3" transform="translate(287,79)"/>
<path d="M0 0 C-1.29299694 2.88437779 -2.65941363 4.87219421 -5 7 C-6.32 6.34 -7.64 5.68 -9 5 C-8.01 5 -7.02 5 -6 5 C-6 4.34 -6 3.68 -6 3 C-2.53846154 0 -2.53846154 0 0 0 Z " fill="#3A86B9" transform="translate(470,314)"/>
<path d="M0 0 C-0.33 0.99 -0.66 1.98 -1 3 C-4.375 4.3125 -4.375 4.3125 -8 5 C-8.99 4.34 -9.98 3.68 -11 3 C-9.54293274 2.49632243 -8.08429904 1.99717444 -6.625 1.5 C-5.81289063 1.2215625 -5.00078125 0.943125 -4.1640625 0.65625 C-2 0 -2 0 0 0 Z " fill="#408DBE" transform="translate(348,224)"/>
<path d="M0 0 C0.66 0 1.32 0 2 0 C2 1.98 2 3.96 2 6 C0.68 6.33 -0.64 6.66 -2 7 C-1.125 2.25 -1.125 2.25 0 0 Z " fill="#1776BE" transform="translate(366,207)"/>
<path d="M0 0 C1.32 0.33 2.64 0.66 4 1 C4 1.99 4 2.98 4 4 C4.66 4 5.32 4 6 4 C5.67 5.32 5.34 6.64 5 8 C5 7.34 5 6.68 5 6 C4.360625 5.7525 3.72125 5.505 3.0625 5.25 C1 4 1 4 0.25 1.875 C0.1675 1.25625 0.085 0.6375 0 0 Z " fill="#107DD3" transform="translate(391,142)"/>
<path d="M0 0 C0 3 0 3 -1.4609375 4.82421875 C-2.09257812 5.43910156 -2.72421875 6.05398437 -3.375 6.6875 C-4.00148438 7.31011719 -4.62796875 7.93273437 -5.2734375 8.57421875 C-7 10 -7 10 -9 10 C-9 9.34 -9 8.68 -9 8 C-7.28515625 6.30859375 -7.28515625 6.30859375 -5.0625 4.4375 C-3.96615234 3.50744141 -3.96615234 3.50744141 -2.84765625 2.55859375 C-2.23792969 2.04425781 -1.62820313 1.52992187 -1 1 C-0.67 0.67 -0.34 0.34 0 0 Z " fill="#1278CC" transform="translate(277,124)"/>
<path d="M0 0 C1.98 0 3.96 0 6 0 C6.66 1.98 7.32 3.96 8 6 C4.63408134 4.55746343 2.48952921 2.66735273 0 0 Z " fill="#3D8FC4" transform="translate(380,103)"/>
<path d="M0 0 C0 0.66 0 1.32 0 2 C-1.98 2.99 -3.96 3.98 -6 5 C-6.33 3.68 -6.66 2.36 -7 1 C-4.53721199 -0.231394 -2.7204945 -0.07159196 0 0 Z " fill="#3981B9" transform="translate(278,101)"/>
<path d="M0 0 C2.97 0 5.94 0 9 0 C9.33 1.32 9.66 2.64 10 4 C6.7 3.01 3.4 2.02 0 1 C0 0.67 0 0.34 0 0 Z " fill="#4F98C8" transform="translate(357,92)"/>
<path d="M0 0 C1.32 0 2.64 0 4 0 C4 0.66 4 1.32 4 2 C-1.625 5 -1.625 5 -5 5 C-5 4.01 -5 3.02 -5 2 C-3.35 1.67 -1.7 1.34 0 1 C0 0.67 0 0.34 0 0 Z " fill="#5195C2" transform="translate(362,252)"/>
<path d="M0 0 C2.86207152 1.28299758 5.0245088 2.530636 7 5 C7 5.99 7 6.98 7 8 C2.98828974 6.66276325 2.13881716 4.54011116 0 1 C0 0.67 0 0.34 0 0 Z " fill="#1776C6" transform="translate(271,235)"/>
<path d="M0 0 C2.40072955 2.88087546 4.47291037 5.56404834 6 9 C3 9 3 9 1 8 C0.40644386 5.35139573 0.25790731 2.70802678 0 0 Z " fill="#5496C4" transform="translate(287,202)"/>
<path d="M0 0 C0.33 0 0.66 0 1 0 C1.625 3.375 1.625 3.375 2 7 C1.34 7.66 0.68 8.32 0 9 C-0.64767793 11.57061311 -0.64767793 11.57061311 -1 14 C-1.33 14 -1.66 14 -2 14 C-2.21192221 8.80790596 -1.5912689 4.873261 0 0 Z " fill="#117AD0" transform="translate(222,152)"/>
<path d="M0 0 C1.32 0.33 2.64 0.66 4 1 C1.38485683 3.12038635 -1.19637616 5.13091744 -4 7 C-4.33 5.68 -4.66 4.36 -5 3 C-3.35 3 -1.7 3 0 3 C0 2.01 0 1.02 0 0 Z " fill="#5496C5" transform="translate(304,141)"/>
<path d="M0 0 C1.875 0.5 1.875 0.5 4 2 C4.98494554 4.65177645 5.45912382 7.20547307 6 10 C5.34 10 4.68 10 4 10 C3.32845067 8.71086513 2.66291141 7.41859796 2 6.125 C1.62875 5.40570313 1.2575 4.68640625 0.875 3.9453125 C0 2 0 2 0 0 Z " fill="#226FB2" transform="translate(387,131)"/>
<path d="M0 0 C1.32 0.33 2.64 0.66 4 1 C4.66 3.64 5.32 6.28 6 9 C3 8 3 8 2.05078125 6.15234375 C1.80714844 5.42144531 1.56351562 4.69054687 1.3125 3.9375 C1.06113281 3.20402344 0.80976563 2.47054688 0.55078125 1.71484375 C0.36902344 1.14894531 0.18726563 0.58304687 0 0 Z " fill="#418ECE" transform="translate(401,271)"/>
<path d="M0 0 C3.16115776 1.36983503 3.9927092 1.9890638 6 5 C6 5.99 6 6.98 6 8 C5.01 8 4.02 8 3 8 C0 2.25 0 2.25 0 0 Z " fill="#2C7DB4" transform="translate(290,209)"/>
<path d="M0 0 C0.66 0.33 1.32 0.66 2 1 C1.67 2.65 1.34 4.3 1 6 C-0.32 6 -1.64 6 -3 6 C-2.67 6.99 -2.34 7.98 -2 9 C-2.66 9 -3.32 9 -4 9 C-4 7.68 -4 6.36 -4 5 C-3.34 4.67 -2.68 4.34 -2 4 C-0.86649466 1.98330173 -0.86649466 1.98330173 0 0 Z " fill="#1773BB" transform="translate(291,151)"/>
<path d="M0 0 C2.5 2.3125 2.5 2.3125 5 5 C5 5.99 5 6.98 5 8 C4.01 8 3.02 8 2 8 C1.34 5.36 0.68 2.72 0 0 Z " fill="#4B92C0" transform="translate(413,110)"/>
<path d="M0 0 C0 0.99 0 1.98 0 3 C0.99 3.33 1.98 3.66 3 4 C3.6875 6.0625 3.6875 6.0625 4 8 C-0.1424367 6.61918777 -1.32203099 4.40174442 -4 1 C-2 0 -2 0 0 0 Z " fill="#5496C7" transform="translate(440,309)"/>
<path d="M0 0 C5.875 3.625 5.875 3.625 7 7 C6.01 7 5.02 7 4 7 C4 6.01 4 5.02 4 4 C2.68 3.67 1.36 3.34 0 3 C0 2.01 0 1.02 0 0 Z " fill="#5B99CD" transform="translate(449,278)"/>
<path d="M0 0 C0 0.99 0 1.98 0 3 C-1.98 3.99 -1.98 3.99 -4 5 C-4.99 4.34 -5.98 3.68 -7 3 C-3.375 0 -3.375 0 0 0 Z " fill="#1E77BA" transform="translate(370,248)"/>
<path d="M0 0 C0.99 0.33 1.98 0.66 3 1 C1.35 2.98 -0.3 4.96 -2 7 C-2.33 6.01 -2.66 5.02 -3 4 C-1.5625 1.8125 -1.5625 1.8125 0 0 Z " fill="#5C9AC1" transform="translate(393,225)"/>
<path d="M0 0 C0.33 0 0.66 0 1 0 C1.08131463 1.43655854 1.13933559 2.8744483 1.1875 4.3125 C1.23970703 5.51326172 1.23970703 5.51326172 1.29296875 6.73828125 C0.93801608 9.47851584 0.10633718 10.29171079 -2 12 C-1 3.42857143 -1 3.42857143 0 0 Z " fill="#56A0C7" transform="translate(421,200)"/>
<path d="M0 0 C2.64 0.66 5.28 1.32 8 2 C8 2.66 8 3.32 8 4 C5.03 3.67 2.06 3.34 -1 3 C-0.67 2.01 -0.34 1.02 0 0 Z " fill="#4790BF" transform="translate(336,136)"/>
<path d="M0 0 C3.91606575 0.53400897 6.39338934 1.19669467 10 3 C7.03 3 4.06 3 1 3 C0.67 2.01 0.34 1.02 0 0 Z " fill="#1476BF" transform="translate(355,89)"/>
<path d="M0 0 C0.66 0.33 1.32 0.66 2 1 C1.1875 3.9375 1.1875 3.9375 0 7 C-0.99 7.33 -1.98 7.66 -3 8 C-1.125 1.125 -1.125 1.125 0 0 Z " fill="#2976AF" transform="translate(397,217)"/>
<path d="M0 0 C0 3.20395416 -0.74335022 5.09399739 -2 8 C-2.99 8 -3.98 8 -5 8 C-3.62845496 5.04590299 -2.01136276 2.55991624 0 0 Z " fill="#6EA7CD" transform="translate(365,207)"/>
<path d="M0 0 C0.66 0.33 1.32 0.66 2 1 C1.67 3.64 1.34 6.28 1 9 C0.34 9 -0.32 9 -1 9 C-0.67 6.03 -0.34 3.06 0 0 Z " fill="#3276A7" transform="translate(404,197)"/>
<path d="M0 0 C2.79872437 2.52788007 4.45773019 4.20411134 5 8 C4.01 8 3.02 8 2 8 C1.34 5.36 0.68 2.72 0 0 Z " fill="#5A9DCB" transform="translate(391,134)"/>
<path d="M0 0 C0.66 0.33 1.32 0.66 2 1 C1.6875 2.9375 1.6875 2.9375 1 5 C0.01 5.33 -0.98 5.66 -2 6 C-2.66 5.34 -3.32 4.68 -4 4 C-2.68 2.68 -1.36 1.36 0 0 Z " fill="#5295CC" transform="translate(280,118)"/>
<path d="M0 0 C-4.43076923 3.07692308 -4.43076923 3.07692308 -7.3125 2.6875 C-8.1478125 2.3471875 -8.1478125 2.3471875 -9 2 C-6.32750728 -0.67249272 -3.5165484 -1.7582742 0 0 Z " fill="#1673BE" transform="translate(289,118)"/>
<path d="M0 0 C1.875 0.1875 1.875 0.1875 4 1 C5.25 3.5625 5.25 3.5625 6 6 C3.5625 5.25 3.5625 5.25 1 4 C0.1875 1.875 0.1875 1.875 0 0 Z " fill="#2874B1" transform="translate(395,95)"/>
<path d="M0 0 C2.875 0.25 2.875 0.25 6 1 C7.375 3.0625 7.375 3.0625 8 5 C2.25 3.375 2.25 3.375 0 0 Z " fill="#1472C1" transform="translate(442,314)"/>
<path d="M0 0 C1.32 0 2.64 0 4 0 C4.33 1.32 4.66 2.64 5 4 C4.01 4.33 3.02 4.66 2 5 C1.34 3.35 0.68 1.7 0 0 Z " fill="#2781C2" transform="translate(466,298)"/>
<path d="M0 0 C1.65 1.65 3.3 3.3 5 5 C3.35 5 1.7 5 0 5 C0 4.34 0 3.68 0 3 C-0.66 2.67 -1.32 2.34 -2 2 C-1.34 2 -0.68 2 0 2 C0 1.34 0 0.68 0 0 Z " fill="#4F8DCD" transform="translate(434,262)"/>
<path d="M0 0 C0 0.33 0 0.66 0 1 C-1.98 1 -3.96 1 -6 1 C-6 1.99 -6 2.98 -6 4 C-7.65 3.67 -9.3 3.34 -11 3 C-7.48550811 -0.37391222 -4.73940561 -0.27342725 0 0 Z " fill="#1576C2" transform="translate(363,253)"/>
<path d="M0 0 C0.33 0 0.66 0 1 0 C0.67 2.31 0.34 4.62 0 7 C-1.32 7.33 -2.64 7.66 -4 8 C-2.68 5.36 -1.36 2.72 0 0 Z " fill="#4F93C2" transform="translate(413,224)"/>
<path d="M0 0 C1.25541557 3.76624671 0.37061958 5.37188934 -1 9 C-1.66 9 -2.32 9 -3 9 C-2.44271087 5.65626525 -1.64826111 2.96687001 0 0 Z " fill="#4281B1" transform="translate(434,215)"/>
<path d="M0 0 C0.99 0 1.98 0 3 0 C3.66 2.31 4.32 4.62 5 7 C4.01 7.495 4.01 7.495 3 8 C0 2.25 0 2.25 0 0 Z " fill="#4287C0" transform="translate(253,210)"/>
<path d="M0 0 C0.99 0 1.98 0 3 0 C3 2.31 3 4.62 3 7 C1.5 5.75 1.5 5.75 0 4 C0 2.68 0 1.36 0 0 Z " fill="#2173B3" transform="translate(284,199)"/>
<path d="M0 0 C1.98 0.66 3.96 1.32 6 2 C5.67 2.66 5.34 3.32 5 4 C3.35 4 1.7 4 0 4 C-0.33 3.01 -0.66 2.02 -1 1 C-0.67 0.67 -0.34 0.34 0 0 Z " fill="#1475C1" transform="translate(357,145)"/>
<path d="M0 0 C0.33 1.32 0.66 2.64 1 4 C-1.97 6.475 -1.97 6.475 -5 9 C-3.7508258 5.54074837 -2.32472205 2.85306797 0 0 Z " fill="#65A1CB" transform="translate(263,136)"/>
<path d="M0 0 C2.0625 0.4375 2.0625 0.4375 4 1 C2.71034824 2.37562854 1.37310707 3.70766393 0 5 C-0.66 5 -1.32 5 -2 5 C-1.125 1.125 -1.125 1.125 0 0 Z " fill="#4086B8" transform="translate(274,123)"/>
<path d="M0 0 C2.97 0.495 2.97 0.495 6 1 C3.61426621 2.89213369 1.92824652 4.02391783 -1 5 C-0.67 3.35 -0.34 1.7 0 0 Z " fill="#4594C9" transform="translate(279,97)"/>
</svg>
